<svg width="32" height="32" viewBox="0 0 32 32" fill="none" xmlns="http://www.w3.org/2000/svg">
<path d="M12.2324 27.7974H20.2324M7.23227 12.7974C7.23227 10.4104 8.18048 8.12123 9.8683 6.4334C11.5561 4.74557 13.8453 3.79736 16.2323 3.79736C18.6192 3.79736 20.9084 4.74557 22.5962 6.4334C24.2841 8.12123 25.2323 10.4104 25.2323 12.7974C25.2323 17.2749 26.2698 20.8724 27.0948 22.2974C27.1824 22.4491 27.2286 22.6212 27.2287 22.7965C27.2289 22.9717 27.183 23.1439 27.0957 23.2958C27.0083 23.4478 26.8826 23.5741 26.731 23.6621C26.5795 23.7501 26.4075 23.7967 26.2323 23.7974H6.23227C6.05724 23.7963 5.88556 23.7493 5.73437 23.6611C5.58319 23.5729 5.45781 23.4466 5.37075 23.2948C5.28369 23.1429 5.23802 22.9709 5.23828 22.7959C5.23855 22.6208 5.28475 22.4489 5.37227 22.2974C6.19602 20.8724 7.23227 17.2736 7.23227 12.7974Z" stroke="white" stroke-width="2" stroke-linecap="round" stroke-linejoin="round"/>
</svg>
