<svg width="32" height="32" viewBox="0 0 32 32" fill="none" xmlns="http://www.w3.org/2000/svg">
<path d="M22 3V7M10 3V7M5 11H27M11 16L13 15V23M17.2675 16C17.4043 15.7644 17.5879 15.5592 17.8069 15.3971C18.0259 15.2349 18.2757 15.1192 18.541 15.0571C18.8063 14.995 19.0815 14.9878 19.3497 15.0358C19.6179 15.0839 19.8735 15.1862 20.1007 15.3366C20.328 15.487 20.5221 15.6822 20.6711 15.9103C20.8202 16.1384 20.9211 16.3945 20.9676 16.663C21.0141 16.9315 21.0053 17.2067 20.9416 17.4716C20.878 17.7365 20.7609 17.9857 20.5975 18.2037L17 23H21M6 5H26C26.5523 5 27 5.44772 27 6V26C27 26.5523 26.5523 27 26 27H6C5.44772 27 5 26.5523 5 26V6C5 5.44772 5.44772 5 6 5Z" stroke="white" stroke-width="2" stroke-linecap="round" stroke-linejoin="round"/>
</svg>
