<svg width="32" height="32" viewBox="0 0 32 32" fill="none" xmlns="http://www.w3.org/2000/svg">
<path d="M20.0001 2.66667H12.0001C11.2637 2.66667 10.6667 3.26363 10.6667 4.00001V6.66667C10.6667 7.40305 11.2637 8.00001 12.0001 8.00001H20.0001C20.7365 8.00001 21.3334 7.40305 21.3334 6.66667V4.00001C21.3334 3.26363 20.7365 2.66667 20.0001 2.66667Z" stroke="white" stroke-width="2" stroke-linecap="round" stroke-linejoin="round"/>
<path d="M21.3333 5.33333H23.9999C24.7072 5.33333 25.3854 5.61428 25.8855 6.11438C26.3856 6.61447 26.6666 7.29275 26.6666 7.99999V26.6667C26.6666 27.3739 26.3856 28.0522 25.8855 28.5523C25.3854 29.0524 24.7072 29.3333 23.9999 29.3333H7.99992C7.29267 29.3333 6.6144 29.0524 6.1143 28.5523C5.6142 28.0522 5.33325 27.3739 5.33325 26.6667V7.99999C5.33325 7.29275 5.6142 6.61447 6.1143 6.11438C6.6144 5.61428 7.29267 5.33333 7.99992 5.33333H10.6666" stroke="white" stroke-width="2" stroke-linecap="round" stroke-linejoin="round"/>
<path d="M12 16H20" stroke="white" stroke-width="2" stroke-linecap="round" stroke-linejoin="round"/>
<path d="M12 21.3333H20" stroke="white" stroke-width="2" stroke-linecap="round" stroke-linejoin="round"/>
</svg>
