<svg width="32" height="32" viewBox="0 0 32 32" fill="none" xmlns="http://www.w3.org/2000/svg">
<path d="M22 13L16 16V9M16 28C13.6266 28 11.3066 27.2962 9.33316 25.9776C7.35977 24.6591 5.8217 22.7849 4.91345 20.5922C4.0052 18.3995 3.76756 15.9867 4.23058 13.6589C4.6936 11.3312 5.83649 9.19295 7.51472 7.51472C9.19295 5.83649 11.3312 4.6936 13.6589 4.23058C15.9867 3.76756 18.3995 4.0052 20.5922 4.91345C22.7849 5.8217 24.6591 7.35977 25.9776 9.33316C27.2962 11.3066 28 13.6266 28 16M24 25C25.6569 25 27 23.6569 27 22C27 20.3431 25.6569 19 24 19C22.3431 19 21 20.3431 21 22C21 23.6569 22.3431 25 24 25ZM24 25C22.075 25 20.4588 26.275 20 28M24 25C25.925 25 27.5413 26.275 28 28" stroke="white" stroke-width="2" stroke-linecap="round" stroke-linejoin="round"/>
</svg>
