<svg width="32" height="32" viewBox="0 0 32 32" fill="none" xmlns="http://www.w3.org/2000/svg">
<path d="M18.1334 8C18.1334 9.17821 17.1782 10.1333 16 10.1333C14.8218 10.1333 13.8667 9.17821 13.8667 8C13.8667 6.82179 14.8218 5.86667 16 5.86667C17.1782 5.86667 18.1334 6.82179 18.1334 8Z" fill="white"/>
<path d="M18.1334 16C18.1334 17.1782 17.1782 18.1333 16 18.1333C14.8218 18.1333 13.8667 17.1782 13.8667 16C13.8667 14.8218 14.8218 13.8667 16 13.8667C17.1782 13.8667 18.1334 14.8218 18.1334 16Z" fill="white"/>
<path d="M18.1334 24C18.1334 25.1782 17.1782 26.1333 16 26.1333C14.8218 26.1333 13.8667 25.1782 13.8667 24C13.8667 22.8218 14.8218 21.8667 16 21.8667C17.1782 21.8667 18.1334 22.8218 18.1334 24Z" fill="white"/>
</svg>
