<svg width="32" height="32" viewBox="0 0 32 32" fill="none" xmlns="http://www.w3.org/2000/svg">
<path d="M6 5L26 27M19.3638 19.7C18.3824 20.5921 17.0869 21.0579 15.7622 20.9948C14.4375 20.9318 13.1921 20.3451 12.3 19.3638C11.4079 18.3824 10.9421 17.0869 11.0052 15.7622C11.0682 14.4375 11.6549 13.1921 12.6362 12.3M16.9413 11.0888C18.0043 11.2923 18.9725 11.8353 19.7005 12.6362C20.4286 13.437 20.8771 14.4525 20.9788 15.53M26.0762 21.1375C28.8012 18.6975 30 16 30 16C30 16 26 7 16 7C15.134 6.99882 14.2694 7.06905 13.415 7.21M9.25 8.575C4.15375 11.155 2 16 2 16C2 16 6 25 16 25C18.3431 25.0184 20.657 24.4785 22.75 23.425" stroke="white" stroke-width="2" stroke-linecap="round" stroke-linejoin="round"/>
</svg>
