<svg width="32" height="32" viewBox="0 0 32 32" fill="none" xmlns="http://www.w3.org/2000/svg">
<path d="M15.8123 20.8612C18.5737 20.8612 20.8123 18.6226 20.8123 15.8612C20.8123 13.0997 18.5737 10.8612 15.8123 10.8612C13.0509 10.8612 10.8123 13.0997 10.8123 15.8612C10.8123 18.6226 13.0509 20.8612 15.8123 20.8612Z" stroke="white" stroke-width="2" stroke-linecap="round" stroke-linejoin="round"/>
<path d="M4.98604 22.1155C4.43351 21.1638 4.01021 20.1428 3.72729 19.0793L5.82479 16.4543C5.80105 16.053 5.80105 15.6506 5.82479 15.2493L3.72854 12.6243C4.01097 11.5606 4.43341 10.5392 4.98479 9.58679L8.32354 9.21179C8.59016 8.91141 8.87441 8.62716 9.17479 8.36054L9.54979 5.02304C10.5008 4.47429 11.5206 4.05436 12.5823 3.77429L15.2073 5.87179C15.6086 5.84804 16.011 5.84804 16.4123 5.87179L19.0373 3.77554C20.1009 4.05797 21.1224 4.48041 22.0748 5.03179L22.4498 8.37054C22.7502 8.63716 23.0344 8.92141 23.301 9.22179L26.6385 9.59679C27.1911 10.5485 27.6144 11.5696 27.8973 12.633L25.7998 15.258C25.8235 15.6594 25.8235 16.0617 25.7998 16.463L27.896 19.088C27.6156 20.1514 27.1953 21.1728 26.646 22.1255L23.3073 22.5005C23.0407 22.8009 22.7564 23.0852 22.456 23.3518L22.081 26.6893C21.1293 27.2418 20.1083 27.6651 19.0448 27.948L16.4198 25.8505C16.0185 25.8743 15.6161 25.8743 15.2148 25.8505L12.5898 27.9468C11.5265 27.6663 10.505 27.246 9.55229 26.6968L9.17729 23.358C8.87691 23.0914 8.59266 22.8072 8.32604 22.5068L4.98604 22.1155Z" stroke="white" stroke-width="2" stroke-linecap="round" stroke-linejoin="round"/>
</svg>
