<svg width="32" height="32" viewBox="0 0 32 32" fill="none" xmlns="http://www.w3.org/2000/svg">
<path d="M9.48499 15.4075L11.15 12.5C11.2379 12.3478 11.3643 12.2214 11.5166 12.1336C11.6689 12.0458 11.8417 11.9997 12.0175 12H14.1062C14.2751 12.0003 14.4412 11.9572 14.5887 11.875L16.125 11.03C16.1926 10.9936 16.2552 10.9487 16.3112 10.8962L19.6762 7.85499C19.8437 7.70272 19.9545 7.49815 19.9906 7.27473C20.0267 7.05131 19.9859 6.82225 19.875 6.62499L18.5625 4.27374M8.47245 6.65375L6.99995 10.135C6.90049 10.3707 6.89512 10.6355 6.98495 10.875L8.42245 14.7087C8.48152 14.8654 8.57896 15.0047 8.70585 15.1139C8.83274 15.2231 8.98501 15.2987 9.1487 15.3337L11.8275 15.91C11.976 15.9419 12.1154 16.0072 12.2349 16.101C12.3545 16.1947 12.4511 16.3145 12.5175 16.4512L12.9925 17.435C13.0744 17.604 13.2023 17.7465 13.3614 17.8462C13.5206 17.9459 13.7046 17.9988 13.8925 17.9987H15.6175M26.6363 21.56L20.0888 17.5325C19.9697 17.4599 19.837 17.4127 19.6988 17.3937L16.8463 17.0087C16.6321 16.9797 16.4142 17.0209 16.2253 17.1262C16.0365 17.2314 15.8868 17.395 15.7988 17.5925L14.0863 21.435C14.0067 21.6138 13.9813 21.812 14.0133 22.0051C14.0453 22.1982 14.1333 22.3777 14.2663 22.5212L16.7338 25.0625C16.8408 25.1775 16.9191 25.3161 16.9626 25.467C17.006 25.6179 17.0133 25.777 16.9838 25.9312L16.5875 27.9862M28 16C28 22.6274 22.6274 28 16 28C9.37258 28 4 22.6274 4 16C4 9.37258 9.37258 4 16 4C22.6274 4 28 9.37258 28 16Z" stroke="white" stroke-width="2" stroke-linecap="round" stroke-linejoin="round"/>
</svg>
