<svg width="32" height="32" viewBox="0 0 32 32" fill="none" xmlns="http://www.w3.org/2000/svg">
<path d="M13 27.5004V19.5004H19V27.5004H27V15.5004C27.0001 15.369 26.9743 15.2389 26.9241 15.1175C26.8739 14.9961 26.8003 14.8858 26.7075 14.7929L16.7075 4.79289C16.6146 4.69991 16.5043 4.62615 16.3829 4.57583C16.2615 4.52551 16.1314 4.4996 16 4.4996C15.8686 4.4996 15.7385 4.52551 15.6171 4.57583C15.4957 4.62615 15.3854 4.69991 15.2925 4.79289L5.2925 14.7929C5.19967 14.8858 5.12605 14.9961 5.07586 15.1175C5.02568 15.2389 4.9999 15.369 5 15.5004V27.5004H13Z" stroke="white" stroke-width="2" stroke-linecap="round" stroke-linejoin="round"/>
</svg>
