<svg width="32" height="32" viewBox="0 0 32 32" fill="none" xmlns="http://www.w3.org/2000/svg">
<path d="M12 20L20 12M14 9.51375L17.7575 5.76375C18.8858 4.65367 20.407 4.03441 21.9898 4.04085C23.5727 4.0473 25.0888 4.67893 26.2081 5.79816C27.3273 6.91739 27.9589 8.43355 27.9654 10.0164C27.9718 11.5992 27.3526 13.1204 26.2425 14.2488L22.485 18M9.51372 14L5.76372 17.7575C4.65364 18.8858 4.03438 20.4071 4.04082 21.9899C4.04727 23.5727 4.6789 25.0889 5.79813 26.2081C6.91736 27.3273 8.43352 27.959 10.0163 27.9654C11.5992 27.9718 13.1204 27.3526 14.2487 26.2425L18 22.485" stroke="white" stroke-width="2" stroke-linecap="round" stroke-linejoin="round"/>
</svg>
