<svg width="32" height="32" viewBox="0 0 32 32" fill="none" xmlns="http://www.w3.org/2000/svg">
<path d="M26.6564 16.6562L15.3439 5.34375M12.0001 20L13.0001 19M13.1252 12.4375L4.19391 24.625C4.05284 24.8175 3.98526 25.0541 4.00337 25.292C4.02148 25.53 4.12409 25.7536 4.29266 25.9225L6.08016 27.71C6.24907 27.8786 6.4727 27.9812 6.71065 27.9993C6.9486 28.0174 7.18518 27.9498 7.37766 27.8088L19.5627 18.875M29.0001 11C29.0001 15.4183 25.4184 19 21.0001 19C16.5818 19 13.0001 15.4183 13.0001 11C13.0001 6.58172 16.5818 3 21.0001 3C25.4184 3 29.0001 6.58172 29.0001 11Z" stroke="white" stroke-width="2" stroke-linecap="round" stroke-linejoin="round"/>
</svg>
