<svg width="32" height="32" viewBox="0 0 32 32" fill="none" xmlns="http://www.w3.org/2000/svg">
<path d="M13.4999 18.5L19.9999 12M13.4999 18.5L2.57116 13.1825C2.38714 13.0954 2.2341 12.9542 2.13248 12.7778C2.03087 12.6013 1.98552 12.3981 2.00251 12.1952C2.0195 11.9923 2.09801 11.7995 2.22754 11.6424C2.35708 11.4853 2.53147 11.3715 2.72741 11.3162L26.7274 4.03874C26.8985 3.99053 27.0793 3.98879 27.2512 4.03368C27.4232 4.07857 27.5801 4.16848 27.7058 4.29414C27.8314 4.41981 27.9213 4.5767 27.9662 4.74866C28.0111 4.92062 28.0094 5.10143 27.9612 5.27249L20.6837 29.2712C20.6284 29.4672 20.5146 29.6416 20.3575 29.7711C20.2004 29.9006 20.0076 29.9792 19.8047 29.9961C19.6018 30.0131 19.3986 29.9678 19.2221 29.8662C19.0457 29.7646 18.9045 29.6115 18.8174 29.4275L13.4999 18.5Z" stroke="white" stroke-width="2" stroke-linecap="round" stroke-linejoin="round"/>
</svg>
