<svg width="32" height="32" viewBox="0 0 32 32" fill="none" xmlns="http://www.w3.org/2000/svg">
<path d="M27 27H12M12 27L5.06372 20.0638M12 27L6 27C5.73478 27 5.48043 26.8947 5.29289 26.7071C5.10536 26.5196 5 26.2653 5 26V20.4138C5.00012 20.1489 5.10532 19.8949 5.2925 19.7075L20.7075 4.29254C20.895 4.10514 21.1493 3.99988 21.4144 3.99988C21.6795 3.99988 21.9337 4.10514 22.1213 4.29254L27.7075 9.87504C27.8949 10.0626 28.0002 10.3168 28.0002 10.5819C28.0002 10.847 27.8949 11.1013 27.7075 11.2888L12 27ZM20.5 11.5L8.5 23.5M17 8.00003L24 15" stroke="white" stroke-width="2" stroke-linecap="round" stroke-linejoin="round"/>
</svg>
