<svg width="32" height="32" viewBox="0 0 32 32" fill="none" xmlns="http://www.w3.org/2000/svg">
<path d="M9 4.985V27.015C9.00327 27.1908 9.05282 27.3626 9.14368 27.5132C9.23453 27.6637 9.36347 27.7876 9.51749 27.8724C9.67152 27.9572 9.84518 27.9999 10.021 27.9962C10.1967 27.9925 10.3684 27.9425 10.5188 27.8512L28.5287 16.8362C28.6726 16.7492 28.7916 16.6265 28.8741 16.48C28.9567 16.3335 29.0001 16.1682 29.0001 16C29.0001 15.8318 28.9567 15.6665 28.8741 15.52C28.7916 15.3735 28.6726 15.2508 28.5287 15.1637L10.5188 4.14875C10.3684 4.05751 10.1967 4.00751 10.021 4.00379C9.84518 4.00008 9.67152 4.04278 9.51749 4.12758C9.36347 4.21239 9.23453 4.33631 9.14368 4.48684C9.05282 4.63738 9.00327 4.8092 9 4.985Z" stroke="white" stroke-width="2" stroke-linecap="round" stroke-linejoin="round"/>
</svg>
