<svg width="32" height="32" viewBox="0 0 32 32" fill="none" xmlns="http://www.w3.org/2000/svg">
<path d="M21.5 16L22.03 16.848C22.3224 16.6653 22.5 16.3448 22.5 16C22.5 15.6552 22.3224 15.3347 22.03 15.152L21.5 16ZM13.5 11L14.03 10.152C13.7217 9.95933 13.3332 9.94913 13.0152 10.1254C12.6973 10.3016 12.5 10.6365 12.5 11H13.5ZM13.5 21H12.5C12.5 21.3635 12.6973 21.6984 13.0152 21.8746C13.3332 22.0509 13.7217 22.0407 14.03 21.848L13.5 21ZM28 16H27C27 22.0751 22.0751 27 16 27V28V29C23.1797 29 29 23.1797 29 16H28ZM16 28V27C9.92487 27 5 22.0751 5 16H4H3C3 23.1797 8.8203 29 16 29V28ZM4 16H5C5 9.92487 9.92487 5 16 5V4V3C8.8203 3 3 8.8203 3 16H4ZM16 4V5C22.0751 5 27 9.92487 27 16H28H29C29 8.8203 23.1797 3 16 3V4ZM21.5 16L22.03 15.152L14.03 10.152L13.5 11L12.97 11.848L20.97 16.848L21.5 16ZM13.5 11H12.5V21H13.5H14.5V11H13.5ZM13.5 21L14.03 21.848L22.03 16.848L21.5 16L20.97 15.152L12.97 20.152L13.5 21Z" fill="white"/>
</svg>
