<svg width="32" height="32" viewBox="0 0 32 32" fill="none" xmlns="http://www.w3.org/2000/svg">
<path d="M12.0363 19.9638L6.00009 26M28.7076 12.2925C28.895 12.105 29.0003 11.8507 29.0003 11.5856C29.0003 11.3205 28.895 11.0663 28.7076 10.8788L21.1251 3.29251C20.9376 3.10511 20.6833 2.99985 20.4182 2.99985C20.1531 2.99985 19.8989 3.10511 19.7113 3.29251L12.5488 10.475C12.5488 10.475 9.08009 8.74126 5.37509 11.7313C5.26522 11.8192 5.17516 11.9293 5.11078 12.0545C5.0464 12.1796 5.00916 12.3169 5.00149 12.4575C4.99382 12.598 5.01589 12.7385 5.06627 12.8699C5.11665 13.0013 5.1942 13.1206 5.29384 13.22L18.7813 26.7063C18.8824 26.8065 19.0036 26.8841 19.137 26.9337C19.2704 26.9834 19.4128 27.004 19.5548 26.9942C19.6968 26.9844 19.8351 26.9443 19.9604 26.8768C20.0857 26.8092 20.1951 26.7157 20.2813 26.6025C21.3301 25.2075 22.9776 22.3413 21.5451 19.4775L28.7076 12.2925Z" stroke="white" stroke-width="2" stroke-linecap="round" stroke-linejoin="round"/>
</svg>
