<svg width="32" height="32" viewBox="0 0 32 32" fill="none" xmlns="http://www.w3.org/2000/svg">
<path d="M12.6667 14.6667L19.3333 9.33332M12.6667 17.3333L19.3333 22.6667M12.6667 16C12.6667 17.8409 11.1743 19.3333 9.33333 19.3333C7.49238 19.3333 6 17.8409 6 16C6 14.159 7.49238 12.6667 9.33333 12.6667C11.1743 12.6667 12.6667 14.159 12.6667 16ZM26 7.99999C26 9.84094 24.5076 11.3333 22.6667 11.3333C20.8257 11.3333 19.3333 9.84094 19.3333 7.99999C19.3333 6.15904 20.8257 4.66666 22.6667 4.66666C24.5076 4.66666 26 6.15904 26 7.99999ZM26 24C26 25.8409 24.5076 27.3333 22.6667 27.3333C20.8257 27.3333 19.3333 25.8409 19.3333 24C19.3333 22.159 20.8257 20.6667 22.6667 20.6667C24.5076 20.6667 26 22.159 26 24Z" stroke="white" stroke-width="2" stroke-linecap="round" stroke-linejoin="round"/>
</svg>
