<svg width="32" height="32" viewBox="0 0 32 32" fill="none" xmlns="http://www.w3.org/2000/svg">
<path d="M10.6666 29.3333C11.403 29.3333 11.9999 28.7364 11.9999 28C11.9999 27.2636 11.403 26.6667 10.6666 26.6667C9.93021 26.6667 9.33325 27.2636 9.33325 28C9.33325 28.7364 9.93021 29.3333 10.6666 29.3333Z" stroke="white" stroke-width="2" stroke-linecap="round" stroke-linejoin="round"/>
<path d="M25.3333 29.3333C26.0697 29.3333 26.6667 28.7364 26.6667 28C26.6667 27.2636 26.0697 26.6667 25.3333 26.6667C24.597 26.6667 24 27.2636 24 28C24 28.7364 24.597 29.3333 25.3333 29.3333Z" stroke="white" stroke-width="2" stroke-linecap="round" stroke-linejoin="round"/>
<path d="M2.66675 2.66667H5.33341L8.88008 19.2267C9.01019 19.8332 9.34764 20.3753 9.83436 20.7598C10.3211 21.1443 10.9266 21.3471 11.5467 21.3333H24.5867C25.1936 21.3324 25.7821 21.1244 26.2548 20.7438C26.7275 20.3632 27.0563 19.8327 27.1867 19.24L29.3334 8H6.82675" stroke="white" stroke-width="2" stroke-linecap="round" stroke-linejoin="round"/>
</svg>
