<svg width="32" height="32" viewBox="0 0 32 32" fill="none" xmlns="http://www.w3.org/2000/svg">
<path d="M12 4H5.33333C4.59695 4 4 4.59695 4 5.33333V12C4 12.7364 4.59695 13.3333 5.33333 13.3333H12C12.7364 13.3333 13.3333 12.7364 13.3333 12V5.33333C13.3333 4.59695 12.7364 4 12 4Z" stroke="white" stroke-width="2" stroke-linecap="round" stroke-linejoin="round"/>
<path d="M26.6667 4H20.0001C19.2637 4 18.6667 4.59695 18.6667 5.33333V12C18.6667 12.7364 19.2637 13.3333 20.0001 13.3333H26.6667C27.4031 13.3333 28.0001 12.7364 28.0001 12V5.33333C28.0001 4.59695 27.4031 4 26.6667 4Z" stroke="white" stroke-width="2" stroke-linecap="round" stroke-linejoin="round"/>
<path d="M26.6667 18.6667H20.0001C19.2637 18.6667 18.6667 19.2636 18.6667 20V26.6667C18.6667 27.4031 19.2637 28 20.0001 28H26.6667C27.4031 28 28.0001 27.4031 28.0001 26.6667V20C28.0001 19.2636 27.4031 18.6667 26.6667 18.6667Z" stroke="white" stroke-width="2" stroke-linecap="round" stroke-linejoin="round"/>
<path d="M12 18.6667H5.33333C4.59695 18.6667 4 19.2636 4 20V26.6667C4 27.4031 4.59695 28 5.33333 28H12C12.7364 28 13.3333 27.4031 13.3333 26.6667V20C13.3333 19.2636 12.7364 18.6667 12 18.6667Z" stroke="white" stroke-width="2" stroke-linecap="round" stroke-linejoin="round"/>
</svg>
