<svg width="32" height="32" viewBox="0 0 32 32" fill="none" xmlns="http://www.w3.org/2000/svg">
<path d="M4 8V18M4 8L16 12L28 8L16 4L4 8ZM7 27C8.9625 23.99 12.1388 22 16 22M16 22C19.8612 22 23.0375 23.99 25 27M16 22C17.3576 22 18.686 21.6047 19.8232 20.8631C20.9605 20.1216 21.8576 19.0654 22.4052 17.8231C22.9529 16.5808 23.1274 15.2061 22.9077 13.8664C22.6879 12.5266 22.0833 11.2797 21.1675 10.2775M16 22C14.6424 22 13.314 21.6047 12.1768 20.8631C11.0395 20.1216 10.1424 19.0654 9.59478 17.8231C9.04713 16.5808 8.87256 15.2061 9.09232 13.8664C9.31208 12.5266 9.91669 11.2797 10.8325 10.2775" stroke="white" stroke-width="2" stroke-linecap="round" stroke-linejoin="round"/>
</svg>
