<svg width="32" height="32" viewBox="0 0 32 32" fill="none" xmlns="http://www.w3.org/2000/svg">
<path d="M30 18C29.302 17.0679 28.3962 16.3114 27.3547 15.7906C26.3131 15.2698 25.1645 14.9991 24 15C24.748 14.9996 25.481 14.7895 26.1156 14.3935C26.7502 13.9974 27.2611 13.4314 27.5902 12.7596C27.9192 12.0878 28.0533 11.3372 27.9772 10.5931C27.9011 9.8489 27.6179 9.14098 27.1596 8.54971C26.7014 7.95845 26.0866 7.50752 25.3849 7.24815C24.6833 6.98877 23.923 6.93135 23.1903 7.08239C22.4577 7.23343 21.7821 7.58689 21.2402 8.10263C20.6984 8.61836 20.312 9.27571 20.125 10M2 18C2.698 17.0679 3.60375 16.3114 4.6453 15.7906C5.68686 15.2698 6.83551 14.9991 8 15C7.25195 14.9996 6.519 14.7895 5.88438 14.3935C5.24976 13.9974 4.73891 13.4314 4.40984 12.7596C4.08077 12.0878 3.94667 11.3372 4.02277 10.5931C4.09887 9.8489 4.38212 9.14098 4.84036 8.54971C5.29859 7.95845 5.91344 7.50752 6.61509 7.24815C7.31673 6.98877 8.07704 6.93135 8.80968 7.08239C9.54233 7.23343 10.2179 7.58689 10.7598 8.10263C11.3016 8.61836 11.688 9.27571 11.875 10M16 23C18.7614 23 21 20.7614 21 18C21 15.2386 18.7614 13 16 13C13.2386 13 11 15.2386 11 18C11 20.7614 13.2386 23 16 23ZM16 23C14.586 23 13.1965 23.369 11.9689 24.0705C10.7412 24.772 9.71786 25.7818 9 27M16 23C17.414 23 18.8035 23.369 20.0311 24.0705C21.2588 24.772 22.2821 25.7818 23 27" stroke="white" stroke-width="2" stroke-linecap="round" stroke-linejoin="round"/>
</svg>
