<svg width="32" height="32" viewBox="0 0 32 32" fill="none" xmlns="http://www.w3.org/2000/svg">
<path d="M13.5 21C17.6421 21 21 17.6421 21 13.5C21 9.35786 17.6421 6 13.5 6C9.35786 6 6 9.35786 6 13.5C6 17.6421 9.35786 21 13.5 21ZM13.5 21C9.195 21 5.56875 22.9437 3 26M13.5 21C17.805 21 21.4312 22.9437 24 26M25 8.5925C25.6599 10.1445 26 11.8136 26 13.5C26 15.1864 25.6599 16.8555 25 18.4075M28.67 7C29.5476 9.05467 30 11.2658 30 13.5C30 15.7342 29.5476 17.9453 28.67 20" stroke="white" stroke-width="2" stroke-linecap="round" stroke-linejoin="round"/>
</svg>
