<svg width="32" height="32" viewBox="0 0 32 32" fill="none" xmlns="http://www.w3.org/2000/svg">
<path d="M4.5 8V24C4.5 24.5304 4.71071 25.0391 5.08579 25.4142C5.46086 25.7893 5.96957 26 6.5 26H26.5C26.7652 26 27.0196 25.8946 27.2071 25.7071C27.3946 25.5196 27.5 25.2652 27.5 25V11C27.5 10.7348 27.3946 10.4804 27.2071 10.2929C27.0196 10.1054 26.7652 10 26.5 10H6.5C5.96957 10 5.46086 9.78929 5.08579 9.41421C4.71071 9.03914 4.5 8.53043 4.5 8ZM4.5 8C4.5 7.46957 4.71071 6.96086 5.08579 6.58579C5.46086 6.21071 5.96957 6 6.5 6H23.5" stroke="white" stroke-width="2" stroke-linecap="round" stroke-linejoin="round"/>
</svg>
