<svg width="99" height="99" viewBox="0 0 99 99" fill="none" xmlns="http://www.w3.org/2000/svg">
<ellipse cx="49.4998" cy="49.5" rx="49.4925" ry="49.5" fill="white"/>
<path d="M47.8585 0H50.9126C51.1573 0.0478246 51.4093 0.0650954 51.6579 0.0721737C52.4375 0.0943578 53.2065 0.150602 53.9833 0.216871C55.8913 0.371639 57.7872 0.65463 59.657 1.06393C71.9098 3.6215 82.734 10.7374 89.9409 20.9725C97.4713 31.6457 100.481 44.8625 98.3134 57.7447C96.104 70.7893 88.767 82.4069 77.9386 90.0062C67.2653 97.5035 54.0645 100.485 41.2057 98.3016C28.1448 96.0726 16.5228 88.6992 8.94093 77.8313C4.66358 71.7166 1.82684 64.7122 0.643678 57.3441C0.419807 55.8886 0.256798 54.4249 0.155076 52.9558C0.11946 52.4706 0.0848751 50.9841 0 50.6383V48.6772C0.0907268 48.2968 0.112818 46.6738 0.145552 46.1553C0.242617 44.7283 0.395871 43.3057 0.604961 41.8908C1.79361 34.3003 4.72876 27.0897 9.17903 20.8273C16.3901 10.665 27.173 3.602 39.3689 1.0522C41.1931 0.670095 43.0381 0.395662 44.8945 0.230319C45.7576 0.153642 47.0663 0.15093 47.8585 0ZM72.6547 46.6091C72.0424 46.1297 71.4421 45.8431 70.7616 45.4753C67.8051 43.8775 63.8503 44.361 61.3972 46.7089C61.3092 44.5483 62.7325 42.9834 64.6846 42.266C63.4009 41.9415 61.4426 41.6494 60.1155 41.5069C53.7279 40.8213 47.5818 41.097 41.4184 42.9846C43.4368 43.5648 44.5976 45.0439 44.5613 47.1667C43.2639 46.1551 41.2423 45.4993 39.5872 45.7225C37.9249 45.9467 36.7527 46.8558 35.7321 48.1472C35.6608 48.2373 35.6545 48.2697 35.6234 48.3754L35.5516 48.4025C35.406 48.2129 35.4535 47.6677 35.4852 47.4225C35.6023 46.5197 35.9587 45.84 36.4418 45.0873C34.735 46.016 32.7937 47.4075 31.3703 48.7372C30.7743 49.2945 29.6878 50.7747 29.2132 51.462C26.6085 55.3004 24.6243 59.5253 23.3335 63.9809C22.3651 67.2552 21.7339 70.693 21.9186 74.1207C21.9551 74.7984 22.1991 75.5603 22.353 76.2249C22.8347 78.3059 24.2651 79.953 25.7526 81.4322C30.313 85.9657 36.2972 89.0069 42.4346 90.7797C47.7156 92.2773 53.1964 92.9502 58.6824 92.7746C59.4418 92.7562 60.1822 92.6957 60.9372 92.6183C61.462 92.5646 62.1589 92.4215 62.6702 92.4248C62.2513 92.598 61.3812 93.0271 61.0165 93.1291C59.2967 93.6109 57.262 93.9084 55.4879 94.0598C47.8438 94.7124 38.7294 93.3531 31.6272 90.4063C30.9266 90.118 30.2347 89.8093 29.5521 89.4809C29.1816 89.3019 28.624 89.0035 28.2587 88.8569C26.8907 89.3101 25.0378 90.3419 23.9743 91.3345C25.5394 92.3736 27.7043 93.4479 29.4296 94.2224C38.7404 98.4003 49.1206 99.5758 59.1298 97.5862C71.9659 95.007 83.2403 87.4062 90.4468 76.473C92.8931 72.7648 94.8238 68.7402 96.1848 64.511C96.3729 63.9146 96.7608 62.6869 96.8609 62.0798C95.0347 58.5128 89.3078 53.7805 86.0625 51.4751C85.3384 50.9614 84.6033 50.4636 83.857 49.9828C83.311 49.6316 82.7581 49.2872 82.2421 48.9075C81.9253 48.684 81.7396 48.6037 81.3846 48.4383C82.0012 48.5611 82.6097 48.8325 83.1886 49.0821C85.8869 50.274 88.4106 51.8273 90.69 53.6998C91.2574 54.1666 91.7715 54.6329 92.3107 55.1296C92.5144 55.3173 92.9424 55.7367 93.1499 55.8939C91.5156 53.7728 89.8238 51.6967 88.0754 49.6684C87.6454 49.1726 86.6027 47.9327 86.1698 47.566C88.2568 49.5069 90.2581 51.4108 92.2164 53.4831C94.2086 55.5911 95.8637 57.764 97.3306 60.2615C97.2435 58.4267 97.2372 56.5315 97.0535 54.7141C96.8605 53.024 96.4653 51.3629 96.0639 49.7158C95.0642 45.6114 93.5146 41.8529 90.8888 38.519C87.2203 33.8616 82.9951 29.5996 77.4389 27.2803C71.5355 24.816 65.6117 23.5932 59.2353 23.9075C56.6825 24.0587 54.1516 24.4669 51.6806 25.126C58.1296 27.1366 64.3247 30.3992 70.0565 33.9447C70.8714 34.4489 71.6525 34.9887 72.4578 35.4987L72.4835 35.5482C72.2885 35.4957 71.7144 35.1602 71.5016 35.0485C71.0388 34.8099 70.5735 34.5759 70.1063 34.3466C67.7069 33.1636 64.9767 31.7682 62.5371 30.7405C56.9307 28.4275 51.1825 26.4735 45.3277 24.8905C41.135 23.7618 37.5616 22.8049 33.1982 22.3692C27.2888 21.7791 20.9716 21.3736 15.6059 24.4708C12.9821 26.0879 10.3584 29.0124 9.54463 32.0026C9.09788 33.6442 9.25569 36.2015 9.92096 37.777C12.2186 43.2182 16.6223 47.6167 21.4975 50.8264C22.5906 51.5462 23.7104 52.2853 24.8327 52.8295C25.5283 51.553 26.6749 50.1874 27.7121 49.159C31.4505 45.4516 36.0627 42.9269 41.0903 41.4479C44.5083 40.4724 48.0321 39.9163 51.5844 39.7917C53.7506 39.7152 55.9058 39.8617 58.06 40.081C63.7825 40.6634 69.2976 41.8066 74.2014 44.9563C73.2529 44.5769 71.9316 44.1664 70.9391 43.8672C71.5132 44.5795 72.393 45.7415 72.6547 46.6091Z" fill="#9AD534"/>
<path d="M50.7742 56.3757C50.9551 56.3651 51.136 56.3622 51.3169 56.3675C56.7014 56.4807 60.5687 59.3787 64.123 63.0956C64.848 63.3051 66.2366 63.2146 66.9311 63.1421C75.9304 62.1969 78.6418 67.5648 72.8989 74.4448C71.2545 76.415 69.8151 77.694 67.7146 79.2269C61.5766 83.7057 54.2072 85.9603 46.7089 86.6879C42.8393 87.0918 38.9455 86.9718 35.288 85.5521C32.8229 84.5953 30.0714 83.252 31.4557 80.1121C31.8513 79.2148 32.3782 78.614 32.9791 77.855C32.6732 75.8307 32.2153 74.0235 31.2587 72.1955C30.8637 72.016 30.2577 71.8356 29.8745 71.6464C27.9065 70.6384 25.4191 69.4329 24.4959 67.3084C23.6414 65.3425 24.7535 62.5732 26.9525 62.1495C29.1982 61.717 32.1743 62.6076 34.4672 62.7285C35.9952 62.8093 39.1381 62.8949 40.578 62.3183C40.876 61.9598 41.1822 61.6087 41.4963 61.2647C44.0242 58.5293 46.9109 56.5266 50.7742 56.3757ZM41.985 61.9826C42.9108 61.7378 44.3498 61.2193 45.0912 60.5904C44.9574 60.8086 44.8278 61.0253 44.6438 61.2057C43.6253 62.2051 41.6394 62.9157 40.259 63.248C37.2184 63.9799 34.7623 63.871 31.6932 63.5382C30.391 63.397 28.6401 63.0594 27.3565 63.3162C26.6932 63.4488 26.154 63.8551 25.8071 64.4336C25.4793 64.9802 25.3212 65.7503 25.4792 66.3758C25.8563 67.8685 27.9425 69.2878 29.1961 69.9965C37.5574 74.7229 53.4561 73.9262 62.4153 71.4157C64.2967 70.888 66.1104 70.1953 67.9144 69.4508C67.7219 69.387 67.6 69.3502 67.4027 69.3028C67.1072 69.2327 66.6134 69.3076 66.4247 69.09C66.5345 68.8791 66.787 68.7789 67.0099 68.7122C68.2307 68.344 69.9506 68.822 70.351 70.1522C70.6325 71.0868 69.8166 71.9004 69.0118 72.2124C69.1322 71.7514 69.3329 70.4831 68.946 70.1227C68.8643 70.1111 68.8304 70.0869 68.7912 70.1309C68.5069 70.4516 68.2336 70.9528 67.9623 71.2764C67.3292 72.0295 66.6095 72.7401 65.8506 73.3632C60.7268 77.5725 53.4024 80.1798 46.9612 81.3001C44.4841 81.6842 37.399 82.4732 35.3733 80.9756C34.8697 80.6031 34.5384 80.0802 34.4547 79.4557C34.3939 79.0024 34.4848 78.5231 34.4539 78.0621C34.3403 76.3608 33.9645 74.306 33.1311 72.8098C32.8008 72.7024 32.4489 72.595 32.1228 72.4818C32.9857 73.7623 33.4621 75.4393 33.6951 76.9544C33.8435 77.9184 34.0268 77.2572 34.2888 77.5435C34.2023 77.7825 33.8576 77.9702 33.6938 78.1729C32.8963 79.1582 32.2103 80.6848 32.7752 81.9319C33.4093 83.3313 34.7632 84.0603 36.1371 84.5503C43.2415 87.0831 54.8195 84.633 61.4204 81.4922C66.032 79.2985 72.57 74.7021 74.3315 69.6651C74.6836 68.6585 74.8437 67.4259 74.3436 66.4372C73.8556 65.4731 72.7848 64.913 71.7947 64.6058C70.4381 64.1845 68.976 64.1429 67.5652 64.1801C66.7028 64.2024 65.8298 64.2822 64.9786 64.0921C65.5643 64.8438 66.2782 65.7479 66.7836 66.5528C66.3401 66.3105 66.0538 66.1044 65.6698 65.7687C63.4454 63.8222 61.0654 61.7015 58.6674 59.9862C56.5989 58.5065 53.2941 57.3572 50.766 57.4888C47.0304 57.6368 44.5385 59.4822 41.985 61.9826Z" fill="#9AD534"/>
<path d="M54.5786 60.1352C55.4313 60.0801 55.7694 60.29 56.1984 60.9924C55.2891 60.975 54.8737 60.99 54.0771 61.4752C53.8382 61.6561 53.443 62.118 53.3023 62.1911C53.2181 62.1088 53.2007 62.0769 53.1794 61.9579C52.9894 60.9087 53.6578 60.3268 54.5786 60.1352Z" fill="#9AD534"/>
<path d="M45.9696 59.6085C46.9045 59.5436 47.8481 60.322 47.0721 61.2038C46.9967 61.2899 46.9191 61.3455 46.8085 61.3436C46.3795 60.2528 45.5449 60.2745 45.341 59.9234C45.4373 59.7599 45.7895 59.6665 45.9696 59.6085Z" fill="#9AD534"/>
<path d="M66.7705 47.4718C67.2358 47.3958 67.7775 47.5134 68.2239 47.6388C67.2266 49.161 67.4544 51.1941 69.4384 51.7852C69.8915 51.9201 70.2843 51.9114 70.7573 51.9177C70.8056 53.7288 70.4681 56.5837 69.6589 58.2211C69.1496 59.2515 68.3284 59.8905 67.2407 60.2373C67.1512 60.26 67.0612 60.2789 66.9703 60.2944C64.6376 60.7017 62.9299 59.6389 62.7248 57.198C62.5033 54.5627 62.764 51.0843 64.2928 48.832C64.8761 47.9725 65.7742 47.5943 66.7705 47.4718Z" fill="#9AD534"/>
<path d="M40.8293 47.0812C41.0936 47.0879 41.8403 47.1774 42.0148 47.3646L41.9827 47.4443C41.2683 47.7729 41.0463 49.1793 41.2275 49.8778C41.372 50.4274 41.7364 50.8927 42.2351 51.1646C42.9508 51.5622 43.7074 51.5201 44.4625 51.3092C44.5736 53.1004 44.2261 55.5016 43.5798 57.1748C43.0652 58.5075 42.3939 59.458 41.0824 60.0414C38.6934 60.8328 36.9395 59.4716 36.6173 57.0829C36.2064 54.0369 37.0644 47.6278 40.8293 47.0812Z" fill="#9AD534"/>
<path d="M31.5199 60.1473C32.4281 60.0187 37.0903 60.1241 37.5415 60.7559L37.5036 60.8066C37.2268 60.8739 36.6004 60.8352 36.2869 60.8434C35.1008 60.8739 33.9195 60.8192 32.7337 60.8042C31.5403 60.7902 30.3367 60.8826 29.1476 60.9585C28.7465 60.9842 27.1517 61.1738 26.8635 61.0442L26.8609 60.973C27.4529 60.4526 30.6274 60.2068 31.5199 60.1473Z" fill="#9AD534"/>
<path d="M32.6725 59.132C33.7072 59.0788 35.2336 59.2104 36.1999 59.5054C35.6831 59.5872 34.864 59.6288 34.3253 59.6733C32.5279 59.8203 30.8076 59.8847 29.0182 60.157C28.5162 60.2112 26.2997 60.7181 26.0385 60.5019L26.0785 60.394C27.3377 59.592 31.1375 59.1934 32.6725 59.132Z" fill="#9AD534"/>
<path d="M76.9524 60.8792C78.8952 60.7878 80.7902 60.901 82.6068 61.6648C81.1514 61.8428 79.0713 61.5559 77.5173 61.5163C75.6891 61.4379 73.7825 61.6469 71.8861 61.6261C73.5388 61.1743 75.2398 60.9237 76.9524 60.8792Z" fill="#9AD534"/>
<path d="M77.3311 59.518C77.8597 59.4774 80.0918 59.4217 80.3689 59.7981C80.0758 60.1048 77.4472 60.1638 76.8382 60.2049C75.6717 60.2891 74.5104 60.4327 73.3588 60.6354C72.3824 60.8008 71.2937 61.0466 70.3201 61.0296C71.9282 60.114 75.5067 59.6762 77.3311 59.518Z" fill="#9AD534"/>
</svg>
