<svg width="507" height="99" viewBox="0 0 507 99" fill="none" xmlns="http://www.w3.org/2000/svg">
<ellipse cx="49.5058" cy="49.5" rx="49.4925" ry="49.5" fill="white"/>
<path d="M47.8643 0H50.9184C51.1632 0.0478246 51.4151 0.0650953 51.6637 0.0721737C52.4434 0.0943578 53.2124 0.150602 53.9891 0.216871C55.8971 0.371639 57.7931 0.65463 59.6629 1.06393C71.9157 3.6215 82.7398 10.7374 89.9467 20.9725C97.4772 31.6457 100.486 44.8625 98.3192 57.7447C96.1099 70.7893 88.7729 82.4069 77.9444 90.0062C67.2712 97.5035 54.0704 100.485 41.2116 98.3016C28.1507 96.0726 16.5286 88.6992 8.94679 77.8313C4.66944 71.7166 1.8327 64.7122 0.649537 57.3441C0.425667 55.8886 0.262658 54.4249 0.160936 52.9558C0.125319 52.4706 0.0907345 50.9841 0.00585938 50.6383V48.6772C0.0965862 48.2968 0.118677 46.6737 0.151411 46.1553C0.248476 44.7283 0.401731 43.3057 0.610821 41.8908C1.79947 34.3003 4.73462 27.0897 9.18489 20.8273C16.396 10.665 27.1789 3.602 39.3748 1.0522C41.1989 0.670094 43.044 0.395662 44.9004 0.230319C45.7634 0.153642 47.0722 0.15093 47.8643 0ZM72.6605 46.6091C72.0482 46.1297 71.448 45.8431 70.7675 45.4753C67.8109 43.8775 63.8561 44.361 61.403 46.7089C61.315 44.5483 62.7384 42.9834 64.6904 42.266C63.4068 41.9415 61.4485 41.6494 60.1214 41.5069C53.7338 40.8213 47.5877 41.097 41.4243 42.9846C43.4426 43.5648 44.6035 45.0439 44.5671 47.1667C43.2698 46.155 41.2482 45.4993 39.5931 45.7225C37.9307 45.9467 36.7585 46.8558 35.7379 48.1472C35.6666 48.2373 35.6604 48.2696 35.6292 48.3754L35.5574 48.4025C35.4119 48.2129 35.4593 47.6677 35.4911 47.4225C35.6081 46.5197 35.9646 45.84 36.4476 45.0873C34.7408 46.016 32.7996 47.4075 31.3761 48.7372C30.7802 49.2945 29.6936 50.7747 29.2191 51.462C26.6143 55.3004 24.6302 59.5253 23.3394 63.9808C22.371 67.2552 21.7398 70.693 21.9244 74.1207C21.9609 74.7984 22.205 75.5603 22.3588 76.2249C22.8406 78.3059 24.271 79.9529 25.7584 81.4322C30.3188 85.9657 36.3031 89.0068 42.4405 90.7797C47.7214 92.2773 53.2022 92.9502 58.6883 92.7746C59.4476 92.7562 60.1881 92.6957 60.9431 92.6183C61.4678 92.5646 62.1648 92.4214 62.676 92.4248C62.2572 92.598 61.3871 93.0271 61.0224 93.1291C59.3025 93.6109 57.2678 93.9084 55.4938 94.0598C47.8496 94.7124 38.7352 93.3531 31.633 90.4062C30.9325 90.118 30.2405 89.8093 29.558 89.4809C29.1875 89.3019 28.6299 89.0035 28.2646 88.8569C26.8965 89.3101 25.0436 90.3419 23.9801 91.3345C25.5452 92.3736 27.7101 93.4479 29.4354 94.2224C38.7462 98.4003 49.1265 99.5757 59.1357 97.5862C71.9718 95.007 83.2462 87.4062 90.4526 76.473C92.8989 72.7648 94.8297 68.7402 96.1907 64.511C96.3788 63.9146 96.7667 62.6869 96.8668 62.0798C95.0405 58.5128 89.3136 53.7805 86.0683 51.4751C85.3443 50.9614 84.6091 50.4636 83.8629 49.9828C83.3168 49.6316 82.764 49.2872 82.2479 48.9075C81.9312 48.684 81.7454 48.6037 81.3904 48.4383C82.0071 48.5611 82.6155 48.8325 83.1945 49.0821C85.8928 50.274 88.4164 51.8273 90.6959 53.6998C91.2632 54.1665 91.7773 54.6329 92.3166 55.1296C92.5202 55.3173 92.9483 55.7367 93.1557 55.8939C91.5215 53.7728 89.8297 51.6967 88.0813 49.6684C87.6513 49.1726 86.6086 47.9327 86.1757 47.566C88.2626 49.5069 90.264 51.4108 92.2223 53.483C94.2145 55.5911 95.8695 57.764 97.3364 60.2615C97.2494 58.4267 97.2431 56.5315 97.0593 54.7141C96.8663 53.024 96.4712 51.3629 96.0697 49.7158C95.07 45.6114 93.5204 41.8529 90.8947 38.519C87.2262 33.8616 83.001 29.5996 77.4448 27.2803C71.5414 24.816 65.6176 23.5931 59.2411 23.9075C56.6884 24.0587 54.1575 24.4669 51.6865 25.126C58.1355 27.1366 64.3306 30.3992 70.0623 33.9447C70.8773 34.4489 71.6584 34.9887 72.4637 35.4987L72.4893 35.5482C72.2944 35.4957 71.7203 35.1602 71.5075 35.0485C71.0446 34.8099 70.5794 34.5759 70.1122 34.3466C67.7128 33.1636 64.9825 31.7682 62.543 30.7405C56.9365 28.4274 51.1883 26.4735 45.3336 24.8905C41.1409 23.7618 37.5675 22.8049 33.2041 22.3692C27.2947 21.7791 20.9775 21.3736 15.6118 24.4708C12.988 26.0879 10.3643 29.0124 9.55049 32.0026C9.10374 33.6442 9.26155 36.2015 9.92682 37.777C12.2245 43.2182 16.6281 47.6167 21.5034 50.8264C22.5965 51.5462 23.7163 52.2853 24.8385 52.8295C25.5342 51.553 26.6808 50.1874 27.7179 49.159C31.4563 45.4516 36.0686 42.9269 41.0962 41.4479C44.5141 40.4724 48.038 39.9163 51.5902 39.7917C53.7565 39.7152 55.9117 39.8617 58.0658 40.081C63.7884 40.6634 69.3035 41.8066 74.2072 44.9563C73.2588 44.5769 71.9375 44.1664 70.945 43.8672C71.5191 44.5795 72.3989 45.7415 72.6605 46.6091Z" fill="#9AD534"/>
<path d="M50.7801 56.3757C50.961 56.3651 51.1419 56.3622 51.3228 56.3675C56.7073 56.4807 60.5745 59.3787 64.1289 63.0956C64.8539 63.3051 66.2424 63.2146 66.937 63.1421C75.9363 62.1969 78.6476 67.5648 72.9048 74.4448C71.2603 76.415 69.821 77.694 67.7205 79.2269C61.5825 83.7057 54.2131 85.9603 46.7147 86.6879C42.8451 87.0918 38.9514 86.9718 35.2939 85.5521C32.8287 84.5953 30.0772 83.252 31.4616 80.1121C31.8572 79.2148 32.384 78.614 32.985 77.855C32.6791 75.8307 32.2212 74.0235 31.2645 72.1955C30.8695 72.016 30.2635 71.8356 29.8803 71.6464C27.9124 70.6384 25.425 69.4329 24.5018 67.3084C23.6473 65.3425 24.7594 62.5732 26.9583 62.1495C29.204 61.717 32.1801 62.6076 34.4731 62.7285C36.0011 62.8093 39.144 62.8949 40.5839 62.3183C40.8818 61.9598 41.188 61.6087 41.5022 61.2647C44.0301 58.5293 46.9167 56.5266 50.7801 56.3757ZM41.9909 61.9826C42.9167 61.7378 44.3557 61.2193 45.097 60.5904C44.9632 60.8086 44.8337 61.0253 44.6497 61.2057C43.6312 62.2051 41.6453 62.9157 40.2649 63.248C37.2243 63.9799 34.7681 63.871 31.6991 63.5382C30.3969 63.397 28.646 63.0593 27.3624 63.3162C26.6991 63.4487 26.1599 63.8551 25.813 64.4336C25.4851 64.9802 25.3271 65.7503 25.485 66.3758C25.8621 67.8685 27.9484 69.2878 29.202 69.9964C37.5633 74.7229 53.462 73.9262 62.4211 71.4157C64.3025 70.888 66.1162 70.1953 67.9202 69.4508C67.7277 69.387 67.6059 69.3502 67.4085 69.3028C67.113 69.2326 66.6192 69.3076 66.4306 69.0899C66.5404 68.879 66.7928 68.7789 67.0158 68.7122C68.2365 68.344 69.9564 68.822 70.3569 70.1522C70.6384 71.0868 69.8224 71.9004 69.0176 72.2124C69.1381 71.7514 69.3388 70.4831 68.9519 70.1227C68.8701 70.1111 68.8363 70.0869 68.7971 70.1309C68.5127 70.4516 68.2394 70.9528 67.9681 71.2764C67.335 72.0295 66.6153 72.7401 65.8565 73.3632C60.7327 77.5725 53.4083 80.1798 46.967 81.3001C44.4899 81.6842 37.4049 82.4732 35.3791 80.9755C34.8756 80.6031 34.5443 80.0802 34.4605 79.4557C34.3998 79.0024 34.4906 78.5231 34.4598 78.0621C34.3462 76.3608 33.9703 74.3059 33.1369 72.8098C32.8067 72.7024 32.4547 72.595 32.1287 72.4818C32.9916 73.7622 33.468 75.4393 33.701 76.9543C33.8494 77.9184 34.0326 77.2572 34.2947 77.5435C34.2081 77.7825 33.8635 77.9702 33.6997 78.1729C32.9022 79.1582 32.2161 80.6848 32.7811 81.9319C33.4152 83.3313 34.7691 84.0603 36.1429 84.5503C43.2474 87.0831 54.8254 84.633 61.4263 81.4922C66.0379 79.2985 72.5759 74.7021 74.3373 69.6651C74.6894 68.6585 74.8495 67.4259 74.3494 66.4372C73.8614 65.4731 72.7906 64.913 71.8006 64.6058C70.4439 64.1845 68.9819 64.1429 67.571 64.1801C66.7087 64.2024 65.8357 64.2822 64.9845 64.0921C65.5702 64.8438 66.284 65.7479 66.7895 66.5528C66.3459 66.3105 66.0596 66.1044 65.6756 65.7687C63.4513 63.8222 61.0712 61.7015 58.6733 59.9862C56.6047 58.5065 53.2999 57.3572 50.7719 57.4888C47.0363 57.6368 44.5443 59.4822 41.9909 61.9826Z" fill="#9AD534"/>
<path d="M54.5845 60.1352C55.4372 60.0801 55.7753 60.29 56.2043 60.9924C55.295 60.975 54.8795 60.99 54.083 61.4751C53.844 61.6561 53.4489 62.118 53.3082 62.1911C53.224 62.1088 53.2066 62.0769 53.1853 61.9579C52.9952 60.9087 53.6636 60.3268 54.5845 60.1352Z" fill="#9AD534"/>
<path d="M45.9754 59.6085C46.9104 59.5436 47.8539 60.3219 47.078 61.2038C47.0025 61.2899 46.9249 61.3455 46.8144 61.3436C46.3854 60.2528 45.5507 60.2745 45.3468 59.9234C45.4432 59.7599 45.7954 59.6665 45.9754 59.6085Z" fill="#9AD534"/>
<path d="M66.7764 47.4718C67.2417 47.3958 67.7834 47.5134 68.2298 47.6388C67.2325 49.161 67.4603 51.1941 69.4442 51.7852C69.8974 51.9201 70.2901 51.9114 70.7631 51.9177C70.8115 53.7288 70.4739 56.5837 69.6648 58.2211C69.1555 59.2515 68.3342 59.8905 67.2465 60.2373C67.157 60.26 67.0671 60.2789 66.9762 60.2944C64.6435 60.7017 62.9357 59.6389 62.7307 57.198C62.5091 54.5627 62.7698 51.0842 64.2987 48.832C64.8819 47.9725 65.7801 47.5943 66.7764 47.4718Z" fill="#9AD534"/>
<path d="M40.8352 47.0812C41.0994 47.0879 41.8462 47.1774 42.0207 47.3646L41.9886 47.4443C41.2741 47.7729 41.0521 49.1793 41.2334 49.8778C41.3779 50.4274 41.7423 50.8927 42.2409 51.1646C42.9567 51.5622 43.7132 51.5201 44.4684 51.3092C44.5795 53.1004 44.2319 55.5016 43.5857 57.1748C43.0711 58.5075 42.3998 59.458 41.0883 60.0414C38.6993 60.8328 36.9454 59.4716 36.6232 57.0829C36.2123 54.0369 37.0703 47.6278 40.8352 47.0812Z" fill="#9AD534"/>
<path d="M31.5258 60.1473C32.434 60.0187 37.0962 60.1241 37.5474 60.7558L37.5095 60.8066C37.2327 60.8739 36.6063 60.8352 36.2928 60.8434C35.1067 60.8739 33.9254 60.8192 32.7396 60.8042C31.5462 60.7902 30.3425 60.8826 29.1535 60.9585C28.7524 60.9842 27.1576 61.1738 26.8694 61.0441L26.8668 60.973C27.4588 60.4526 30.6333 60.2068 31.5258 60.1473Z" fill="#9AD534"/>
<path d="M32.6783 59.132C33.7131 59.0788 35.2395 59.2104 36.2057 59.5054C35.689 59.5872 34.8699 59.6288 34.3312 59.6733C32.5337 59.8203 30.8135 59.8847 29.024 60.157C28.522 60.2112 26.3056 60.7181 26.0443 60.5019L26.0844 60.394C27.3435 59.592 31.1434 59.1934 32.6783 59.132Z" fill="#9AD534"/>
<path d="M76.9582 60.8792C78.9011 60.7878 80.796 60.901 82.6126 61.6648C81.1573 61.8428 79.0771 61.5559 77.5231 61.5163C75.6949 61.4379 73.7884 61.6469 71.892 61.6261C73.5446 61.1743 75.2456 60.9237 76.9582 60.8792Z" fill="#9AD534"/>
<path d="M77.3369 59.518C77.8656 59.4774 80.0976 59.4217 80.3748 59.7981C80.0817 60.1048 77.453 60.1638 76.8441 60.2049C75.6775 60.2891 74.5163 60.4327 73.3647 60.6354C72.3882 60.8008 71.2995 61.0466 70.3259 61.0296C71.9341 60.114 75.5126 59.6762 77.3369 59.518Z" fill="#9AD534"/>
<path d="M140.574 87.0001C138.04 87.0001 135.973 86.4667 134.373 85.4001C132.84 84.3334 131.54 82.6334 130.474 80.3L106.273 26.9001C105.207 24.5667 104.873 22.4667 105.273 20.6C105.673 18.7334 106.607 17.3 108.073 16.3001C109.54 15.2334 111.373 14.7 113.573 14.7C116.307 14.7 118.34 15.3 119.674 16.5C121.074 17.7 122.274 19.4667 123.274 21.8001L143.674 69.0001H138.074L158.473 21.7C159.474 19.3667 160.674 17.6334 162.074 16.5C163.474 15.3 165.44 14.7 167.974 14.7C170.04 14.7 171.773 15.2334 173.174 16.3001C174.574 17.3 175.44 18.7334 175.774 20.6C176.174 22.4667 175.84 24.5667 174.774 26.9001L150.473 80.3C149.473 82.6334 148.207 84.3334 146.674 85.4001C145.14 86.4667 143.107 87.0001 140.574 87.0001Z" fill="#374151"/>
<path d="M190.615 87.0001C187.815 87.0001 185.649 86.1667 184.115 84.5001C182.582 82.8334 181.815 80.4334 181.815 77.3V45.7001C181.815 42.5667 182.582 40.1667 184.115 38.5001C185.649 36.8334 187.815 36 190.615 36C193.482 36 195.682 36.8334 197.215 38.5001C198.815 40.1667 199.615 42.5667 199.615 45.7001V77.3C199.615 80.4334 198.849 82.8334 197.315 84.5001C195.782 86.1667 193.549 87.0001 190.615 87.0001ZM190.615 28.9C187.482 28.9 185.049 28.1667 183.315 26.7C181.649 25.2334 180.815 23.1 180.815 20.3C180.815 17.5667 181.649 15.4667 183.315 14.0001C185.049 12.5334 187.482 11.8 190.615 11.8C193.882 11.8 196.349 12.5334 198.015 14.0001C199.682 15.4667 200.515 17.5667 200.515 20.3C200.515 23.1 199.682 25.2334 198.015 26.7C196.349 28.1667 193.882 28.9 190.615 28.9Z" fill="#374151"/>
<path d="M237.112 87.2001C232.112 87.2001 227.978 86.4334 224.712 84.9001C221.512 83.3667 219.112 81.0667 217.512 78.0001C215.912 74.8667 215.112 70.9667 215.112 66.3V50H211.712C209.578 50 207.912 49.4334 206.712 48.3C205.578 47.1667 205.012 45.5334 205.012 43.4001C205.012 41.2667 205.578 39.6667 206.712 38.6C207.912 37.4667 209.578 36.9001 211.712 36.9001H215.112V30.7001C215.112 27.7667 215.878 25.5334 217.412 24C218.945 22.4667 221.145 21.7 224.012 21.7C226.878 21.7 229.078 22.4667 230.612 24C232.145 25.5334 232.912 27.7667 232.912 30.7001V36.9001H241.112C243.312 36.9001 244.978 37.4667 246.112 38.6C247.312 39.6667 247.912 41.2667 247.912 43.4001C247.912 45.5334 247.312 47.1667 246.112 48.3C244.978 49.4334 243.312 50 241.112 50H232.912V65.7001C232.912 68.1667 233.478 70 234.612 71.2001C235.812 72.3334 237.678 72.9001 240.212 72.9001C241.145 72.9001 242.045 72.8001 242.912 72.6001C243.778 72.4001 244.578 72.3 245.312 72.3C246.378 72.2334 247.245 72.5667 247.912 73.3001C248.578 73.9667 248.912 75.5334 248.912 78.0001C248.912 80.0001 248.612 81.7001 248.012 83.1001C247.412 84.4334 246.345 85.4001 244.812 86.0001C243.878 86.3334 242.612 86.6001 241.012 86.8C239.412 87.0667 238.112 87.2001 237.112 87.2001Z" fill="#374151"/>
<path d="M267.556 87.0001C264.623 87.0001 262.356 86.2001 260.756 84.6001C259.156 82.9334 258.356 80.6001 258.356 77.6001V24.1001C258.356 21.0334 259.156 18.7 260.756 17.1C262.356 15.5 264.623 14.7 267.556 14.7C270.556 14.7 272.823 15.5 274.356 17.1C275.956 18.7 276.756 21.0334 276.756 24.1001V77.6001C276.756 80.6001 275.989 82.9334 274.456 84.6001C272.923 86.2001 270.623 87.0001 267.556 87.0001Z" fill="#9AD534"/>
<path d="M297.108 86.1001C293.975 86.1001 291.575 85.3 289.908 83.7001C288.308 82.0334 287.508 79.6667 287.508 76.6001V25.1C287.508 22.0334 288.308 19.7001 289.908 18.1001C291.575 16.4334 293.975 15.6 297.108 15.6H331.008C333.408 15.6 335.208 16.2 336.408 17.4C337.608 18.6 338.208 20.3334 338.208 22.6C338.208 24.9334 337.608 26.7334 336.408 28C335.208 29.2001 333.408 29.8 331.008 29.8H305.108V43.2001H328.808C331.142 43.2001 332.908 43.8 334.108 45C335.375 46.2001 336.008 47.9667 336.008 50.3001C336.008 52.6334 335.375 54.4001 334.108 55.6001C332.908 56.8001 331.142 57.4001 328.808 57.4001H305.108V71.9001H331.008C333.408 71.9001 335.208 72.5334 336.408 73.8001C337.608 75.0001 338.208 76.7334 338.208 79.0001C338.208 81.3334 337.608 83.1001 336.408 84.3C335.208 85.5 333.408 86.1001 331.008 86.1001H297.108Z" fill="#9AD534"/>
<path d="M356.234 86.1001C353.301 86.1001 351.001 85.3 349.334 83.7001C347.734 82.0334 346.934 79.7334 346.934 76.8V24.8C346.934 21.8 347.734 19.5 349.334 17.9C350.934 16.3 353.201 15.5 356.134 15.5C359.134 15.5 361.401 16.3 362.934 17.9C364.534 19.5 365.334 21.8 365.334 24.8V70.8H389.734C392.268 70.8 394.201 71.4667 395.534 72.8001C396.934 74.0667 397.634 75.9334 397.634 78.4001C397.634 80.8667 396.934 82.7667 395.534 84.1001C394.201 85.4334 392.268 86.1001 389.734 86.1001H356.234Z" fill="#9AD534"/>
<path d="M415.949 87.0001C413.016 87.0001 410.749 86.2001 409.149 84.6001C407.549 82.9334 406.749 80.6334 406.749 77.7001V30.6001H391.049C388.582 30.6001 386.682 29.9667 385.349 28.7001C384.082 27.3667 383.449 25.5 383.449 23.1C383.449 20.6334 384.082 18.7667 385.349 17.5C386.682 16.2334 388.582 15.6 391.049 15.6H440.849C443.316 15.6 445.182 16.2334 446.449 17.5C447.782 18.7667 448.449 20.6334 448.449 23.1C448.449 25.5 447.782 27.3667 446.449 28.7001C445.182 29.9667 443.316 30.6001 440.849 30.6001H425.149V77.7001C425.149 80.6334 424.382 82.9334 422.849 84.6001C421.316 86.2001 419.016 87.0001 415.949 87.0001Z" fill="#9AD534"/>
<path d="M476.556 87.2001C473.889 87.2001 471.089 87.0001 468.156 86.6001C465.289 86.2667 462.556 85.7334 459.956 85.0001C457.356 84.2667 455.023 83.4001 452.956 82.4001C451.156 81.5334 449.889 80.4001 449.156 79.0001C448.423 77.5334 448.156 76.0001 448.356 74.4001C448.556 72.8001 449.123 71.4001 450.056 70.2001C450.989 68.9334 452.223 68.1001 453.756 67.7001C455.289 67.2334 457.023 67.4334 458.956 68.3001C461.489 69.5001 464.356 70.4334 467.556 71.1001C470.756 71.7667 473.756 72.1001 476.556 72.1001C480.956 72.1001 484.023 71.5334 485.756 70.4001C487.556 69.2001 488.456 67.7334 488.456 66C488.456 64.4667 487.823 63.2334 486.556 62.3001C485.356 61.3667 483.189 60.5667 480.056 59.9001L468.356 57.4001C461.956 56.0667 457.189 53.7334 454.056 50.4001C450.923 47.0667 449.356 42.7667 449.356 37.5C449.356 34.0334 450.056 30.9 451.456 28.1C452.923 25.2334 454.956 22.8 457.556 20.8C460.223 18.8 463.356 17.2667 466.956 16.2C470.623 15.0667 474.689 14.5 479.156 14.5C482.623 14.5 486.123 14.9 489.656 15.7C493.256 16.4334 496.356 17.5667 498.956 19.1C500.489 19.9 501.589 21 502.256 22.4C502.923 23.8 503.189 25.2667 503.056 26.8C502.923 28.2667 502.389 29.5667 501.456 30.7001C500.589 31.8334 499.389 32.6 497.856 33C496.389 33.3334 494.623 33.0667 492.556 32.2C490.623 31.3334 488.423 30.7 485.956 30.3C483.556 29.8334 481.223 29.6001 478.956 29.6001C476.489 29.6001 474.389 29.9 472.656 30.5C470.923 31.0334 469.589 31.8334 468.656 32.9001C467.789 33.9667 467.356 35.2 467.356 36.6C467.356 38 467.923 39.2 469.056 40.2001C470.256 41.1334 472.423 41.9334 475.556 42.6L487.156 45.1C493.623 46.5 498.456 48.8 501.656 52C504.856 55.2001 506.456 59.3667 506.456 64.5C506.456 67.9667 505.756 71.1001 504.356 73.9001C502.956 76.7001 500.956 79.1001 498.356 81.1001C495.756 83.0334 492.623 84.5334 488.956 85.6001C485.289 86.6667 481.156 87.2001 476.556 87.2001Z" fill="#9AD534"/>
</svg>
