<svg width="50" height="50" viewBox="0 0 50 50" fill="none" xmlns="http://www.w3.org/2000/svg">
<g clip-path="url(#clip0_107_371)">
<path fill-rule="evenodd" clip-rule="evenodd" d="M41.6162 0.286525C41.886 0.0166928 42.2885 -0.0717808 42.6465 0.0609387C43.0044 0.193744 43.2528 0.523075 43.2812 0.903712L43.6787 6.22695L49.0029 6.62539C49.3836 6.6538 49.7129 6.90148 49.8457 7.25918C49.9784 7.61679 49.8906 8.01954 49.6211 8.28945L45.3652 12.5453C44.6604 13.2502 43.7235 13.6583 42.7275 13.6947C42.7156 13.6952 42.7033 13.6957 42.6914 13.6957C42.6862 13.6957 42.681 13.6958 42.6758 13.6957L39.4531 13.643C42.6295 17.4868 44.54 22.4135 44.54 27.7777C44.54 40.0312 34.5705 50.0004 22.3164 50.0004C10.0625 50.0001 0.09375 40.0311 0.09375 27.7777C0.0937727 15.5244 10.0626 5.55533 22.3164 5.55508C27.596 5.55508 32.4517 7.40614 36.2686 10.4926L36.2109 7.23184C36.2106 7.21429 36.2112 7.19665 36.2119 7.1791C36.2484 6.18295 36.6564 5.24617 37.3613 4.54141L41.6162 0.286525ZM22.3164 7.5082C11.1394 7.50846 2.04688 16.6014 2.04688 27.7777C2.04696 38.954 11.1395 48.047 22.3164 48.0473C33.4934 48.0473 42.5871 38.9542 42.5869 27.7777C42.5869 22.4943 40.555 17.6765 37.2314 14.0648L34.9707 16.3246C37.717 19.3559 39.3926 23.375 39.3926 27.7777C39.3925 37.1927 31.7319 44.852 22.3164 44.852C12.9012 44.8518 5.24129 37.1927 5.24121 27.7777C5.24121 24.1393 6.37481 20.6636 8.51953 17.727C8.8377 17.2913 9.44922 17.196 9.88477 17.5141C10.3203 17.8321 10.4148 18.4438 10.0967 18.8793C8.1979 21.4791 7.19434 24.5563 7.19434 27.7777C7.19442 36.1157 13.979 42.8988 22.3174 42.8988C30.6556 42.8987 37.4393 36.1156 37.4395 27.7777C37.4395 23.9137 35.9823 20.3834 33.5889 17.7074L31.3262 19.9691C33.1433 22.0629 34.2451 24.7943 34.2451 27.7777C34.2451 29.0599 34.0409 30.3226 33.6396 31.5307C33.4695 32.0424 32.9166 32.3196 32.4053 32.1498C31.8935 31.9798 31.6161 31.4263 31.7861 30.9145C32.1214 29.9055 32.292 28.8501 32.292 27.7777C32.292 25.3331 31.4067 23.0915 29.9414 21.3549L27.6719 23.6244C28.5645 24.7726 29.0967 26.2142 29.0967 27.7777C29.0966 31.5158 26.0555 34.5568 22.3174 34.557C18.579 34.557 15.5372 31.5159 15.5371 27.7777C15.5371 24.0395 18.5789 20.9984 22.3174 20.9984C23.7888 20.9985 25.1522 21.4695 26.2646 22.2689L28.543 19.9906C26.8354 18.6227 24.6695 17.8031 22.3164 17.8031C16.8165 17.8034 12.3418 22.2781 12.3418 27.7777C12.3418 33.2773 16.8167 37.7511 22.3164 37.7514C23.9104 37.7514 25.4353 37.3852 26.8467 36.6625C27.3266 36.4172 27.9154 36.6072 28.1611 37.0873C28.4065 37.5673 28.2162 38.1551 27.7363 38.4008C26.0705 39.2536 24.1961 39.7045 22.3164 39.7045C15.7396 39.7042 10.3888 34.3542 10.3887 27.7777C10.3887 21.2012 15.7396 15.8503 22.3164 15.85C25.2082 15.85 27.8636 16.8847 29.9307 18.6029L32.1963 16.3373C29.5443 14.0444 26.0891 12.6557 22.3164 12.6557C20.5577 12.6557 18.8341 12.9565 17.1934 13.5492C16.6857 13.7327 16.1257 13.4695 15.9424 12.9623C15.7595 12.4552 16.0224 11.8956 16.5293 11.7123C18.3835 11.0425 20.3307 10.7026 22.3164 10.7025C26.6277 10.7025 30.5718 12.3093 33.5801 14.9545L35.8418 12.6928C32.2517 9.471 27.5086 7.5082 22.3164 7.5082ZM30.0605 34.0766C30.3783 33.8004 30.8442 33.7598 31.2061 33.974C31.544 34.1742 31.7315 34.5758 31.6689 34.9633C31.5935 35.4307 31.1795 35.7875 30.7051 35.7875C30.2971 35.7875 29.9246 35.5245 29.7861 35.141C29.6517 34.7686 29.7612 34.3369 30.0605 34.0766ZM22.3164 22.9516C19.6551 22.9518 17.4902 25.1165 17.4902 27.7777C17.4903 30.4389 19.6551 32.6037 22.3164 32.6039C24.9779 32.6039 27.1435 30.439 27.1436 27.7777C27.1436 26.7531 26.8221 25.8022 26.2754 25.0199L23.124 28.1713C22.9334 28.3618 22.6834 28.4573 22.4336 28.4574C22.1837 28.4574 21.9329 28.362 21.7422 28.1713C21.3613 27.79 21.3612 27.1717 21.7422 26.7904L24.8574 23.6762C24.1189 23.2172 23.248 22.9516 22.3164 22.9516ZM12.2139 14.0238C12.5246 13.752 12.9883 13.7055 13.3457 13.9125C13.7034 14.1197 13.8972 14.543 13.8154 14.9496C13.7248 15.4004 13.3171 15.7348 12.8574 15.7348C12.4604 15.7348 12.0964 15.4853 11.9502 15.1166C11.8006 14.7386 11.9074 14.292 12.2139 14.0238ZM41.5391 9.75137C41.5205 9.77338 41.5012 9.79506 41.4805 9.81582L39.6045 11.6918L42.6787 11.7416C43.1716 11.7179 43.635 11.5139 43.9844 11.1645L46.7344 8.41445L43.1426 8.1459L41.5391 9.75137ZM38.7422 5.92227C38.3929 6.27148 38.1879 6.73438 38.1641 7.22695L38.2188 10.3119L41.7607 6.76504L41.4922 3.17227L38.7422 5.92227Z" fill="white"/>
</g>
<defs>
<clipPath id="clip0_107_371">
<rect width="50" height="50" fill="white"/>
</clipPath>
</defs>
</svg>
