<svg width="40" height="40" viewBox="0 0 40 40" fill="none" xmlns="http://www.w3.org/2000/svg">
<g clip-path="url(#clip0_423_7110)">
<path d="M6.70595 0.895264C3.51953 0.895264 0.895264 3.51953 0.895264 6.70595V12.2769C0.895264 15.4633 3.51953 18.0876 6.70595 18.0876H12.2769C15.4633 18.0876 18.0876 15.4633 18.0876 12.2769V6.70595C18.0876 3.51953 15.4633 0.895264 12.2769 0.895264H6.70595ZM6.70595 4.71734H12.2769C13.4125 4.71734 14.2655 5.57035 14.2655 6.70595V12.2769C14.2655 13.4125 13.4125 14.2655 12.2769 14.2655H6.70595C5.57035 14.2655 4.71734 13.4125 4.71734 12.2769V6.70595C4.71734 5.57035 5.57035 4.71734 6.70595 4.71734Z" fill="white"/>
<path d="M6.70595 21.9096C3.51953 21.9096 0.895264 24.5339 0.895264 27.7203V33.2913C0.895264 36.4777 3.51953 39.1019 6.70595 39.1019H12.2769C15.4633 39.1019 18.0876 36.4777 18.0876 33.2913V27.7203C18.0876 24.5339 15.4633 21.9096 12.2769 21.9096H6.70595ZM6.70595 25.7317H12.2769C13.4125 25.7317 14.2655 26.5847 14.2655 27.7203V33.2913C14.2655 34.4269 13.4125 35.2799 12.2769 35.2799H6.70595C5.57035 35.2799 4.71734 34.4269 4.71734 33.2913V27.7203C4.71734 26.5847 5.57035 25.7317 6.70595 25.7317Z" fill="white"/>
<path d="M27.7203 0.895264C24.5339 0.895264 21.9096 3.51953 21.9096 6.70595V12.2769C21.9096 15.4633 24.5339 18.0876 27.7203 18.0876H33.2913C36.4777 18.0876 39.1019 15.4633 39.1019 12.2769V6.70595C39.1019 3.51953 36.4777 0.895264 33.2913 0.895264H27.7203ZM27.7203 4.71734H33.2913C34.4269 4.71734 35.2799 5.57035 35.2799 6.70595V12.2769C35.2799 13.4125 34.4269 14.2655 33.2913 14.2655H27.7203C26.5847 14.2655 25.7317 13.4125 25.7317 12.2769V6.70595C25.7317 5.57035 26.5847 4.71734 27.7203 4.71734Z" fill="white"/>
<path d="M27.7203 21.9096C24.5339 21.9096 21.9096 24.5339 21.9096 27.7203V33.2913C21.9096 36.4777 24.5339 39.1019 27.7203 39.1019H33.2913C36.4777 39.1019 39.1019 36.4777 39.1019 33.2913V27.7203C39.1019 24.5339 36.4777 21.9096 33.2913 21.9096H27.7203ZM27.7203 25.7317H33.2913C34.4269 25.7317 35.2799 26.5847 35.2799 27.7203V33.2913C35.2799 34.4269 34.4269 35.2799 33.2913 35.2799H27.7203C26.5847 35.2799 25.7317 34.4269 25.7317 33.2913V27.7203C25.7317 26.5847 26.5847 25.7317 27.7203 25.7317Z" fill="white"/>
</g>
<defs>
<clipPath id="clip0_423_7110">
<rect width="40" height="40" fill="white"/>
</clipPath>
</defs>
</svg>
