<svg width="50" height="50" viewBox="0 0 50 50" fill="none" xmlns="http://www.w3.org/2000/svg">
<path d="M10.8664 37.3715H11.8315V1H10.8562C8.08267 1 5.83743 3.24524 5.83743 6.01887V39.7286C7.04637 38.2859 8.85481 37.3715 10.8664 37.3715Z" fill="white"/>
<path d="M20.645 9.32H36.115V17.496H20.645V9.32Z" fill="white"/>
<path d="M43.0826 1H13.3555V37.3715H44.1797V2.0972C44.1797 1.48764 43.692 1 43.0826 1ZM19.1214 8.55773C19.1214 8.13706 19.4627 7.79576 19.8833 7.79576H36.8774C37.2981 7.79576 37.6394 8.13706 37.6394 8.55773V18.2575C37.6394 18.6782 37.2981 19.0195 36.8774 19.0195H19.8833C19.4627 19.0195 19.1214 18.6782 19.1214 18.2575V8.55773ZM37.1627 31.0171H19.5986C19.1779 31.0171 18.8366 30.6758 18.8366 30.2551C18.8366 29.8345 19.1779 29.4932 19.5986 29.4932H37.1627C37.5834 29.4932 37.9247 29.8345 37.9247 30.2551C37.9247 30.6758 37.5834 31.0171 37.1627 31.0171ZM37.1627 25.908H19.5986C19.1779 25.908 18.8366 25.5667 18.8366 25.146C18.8366 24.7254 19.1779 24.3841 19.5986 24.3841H37.1627C37.5834 24.3841 37.9247 24.7254 37.9247 25.146C37.9247 25.5667 37.5834 25.908 37.1627 25.908Z" fill="white"/>
<path d="M5.82031 43.9498C5.82031 46.739 8.08143 49 10.8706 49H44.1633V44.7118H13.5157C13.095 44.7118 12.7537 44.3705 12.7537 43.9498C12.7537 43.5292 13.095 43.1879 13.5157 43.1879H44.1633V38.8996H10.8706C8.08143 38.8996 5.82031 41.1606 5.82031 43.9498Z" fill="white"/>
</svg>
