<svg width="44" height="44" viewBox="0 0 44 44" fill="none" xmlns="http://www.w3.org/2000/svg">
<path d="M41.0312 11.7035H2.96875C1.42812 11.7035 0.25 10.498 0.25 8.9215C0.25 7.34505 1.42812 6.13953 2.96875 6.13953H41.0312C42.5719 6.13953 43.75 7.34505 43.75 8.9215C43.75 10.498 42.5719 11.7035 41.0312 11.7035Z" fill="white"/>
<path d="M41.0312 24.686H2.96875C1.42812 24.686 0.25 23.4805 0.25 21.9041C0.25 20.3276 1.42812 19.1221 2.96875 19.1221H41.0312C42.5719 19.1221 43.75 20.3276 43.75 21.9041C43.75 23.4805 42.5719 24.686 41.0312 24.686Z" fill="white"/>
<path d="M41.0312 37.6686H2.96875C1.42812 37.6686 0.25 36.4631 0.25 34.8866C0.25 33.3102 1.42812 32.1046 2.96875 32.1046H41.0312C42.5719 32.1046 43.75 33.3102 43.75 34.8866C43.75 36.4631 42.5719 37.6686 41.0312 37.6686Z" fill="white"/>
</svg>
