<svg width="50" height="50" viewBox="0 0 50 50" fill="none" xmlns="http://www.w3.org/2000/svg">
<g clip-path="url(#clip0_391_529)">
<path d="M40.625 4.16667H37.5V1.04167C37.5 0.458333 37.0417 0 36.4583 0C35.875 0 35.4167 0.458333 35.4167 1.04167V4.16667H14.5833V1.04167C14.5833 0.458333 14.125 0 13.5417 0C12.9583 0 12.5 0.458333 12.5 1.04167V4.16667H9.375C4.20833 4.16667 0 8.375 0 13.5417V40.625C0 45.7917 4.20833 50 9.375 50H40.625C45.7917 50 50 45.7917 50 40.625V13.5417C50 8.375 45.7917 4.16667 40.625 4.16667ZM23.9583 18.75V27.0833H14.5833V18.75H23.9583ZM35.4167 18.75V27.0833H26.0417V18.75H35.4167ZM47.9167 18.75V27.0833H37.5V18.75H47.9167ZM12.5 27.0833H2.08333V18.75H12.5V27.0833ZM2.08333 29.1667H12.5V37.5H2.08333V29.1667ZM14.5833 29.1667H23.9583V37.5H14.5833V29.1667ZM23.9583 39.5833V47.9167H14.5833V39.5833H23.9583ZM26.0417 39.5833H35.4167V47.9167H26.0417V39.5833ZM26.0417 37.5V29.1667H35.4167V37.5H26.0417ZM37.5 29.1667H47.9167V37.5H37.5V29.1667ZM9.375 6.25H40.625C44.6458 6.25 47.9167 9.52083 47.9167 13.5417V16.6667H2.08333V13.5417C2.08333 9.52083 5.35417 6.25 9.375 6.25ZM2.08333 40.625V39.5833H12.5V47.9167H9.375C5.35417 47.9167 2.08333 44.6458 2.08333 40.625ZM40.625 47.9167H37.5V39.5833H47.9167V40.625C47.9167 44.6458 44.6458 47.9167 40.625 47.9167Z" fill="white"/>
</g>
<defs>
<clipPath id="clip0_391_529">
<rect width="50" height="50" fill="white"/>
</clipPath>
</defs>
</svg>
