<svg width="64" height="64" viewBox="0 0 64 64" fill="none" xmlns="http://www.w3.org/2000/svg">
<path d="M23.0454 42.7569C23.6704 42.0587 24.494 41.2759 25.168 40.6019L28.8437 36.9256L40.2094 25.5601L50.365 15.405L53.6437 12.1265C54.8669 10.9032 55.8734 9.62836 57.6094 9.15977C58.9244 8.81015 60.3247 9.00208 61.4972 9.69268C62.6847 10.3884 63.5972 11.6218 63.8622 12.9767C63.9006 13.174 63.9394 13.3846 63.9912 13.5778L64 13.6092V14.5202L63.9912 14.5501C63.9216 14.7997 63.8747 15.0801 63.8088 15.3388C63.6162 16.0966 63.2791 16.7443 62.7637 17.3343C62.2122 17.9661 61.5875 18.562 60.9912 19.1572L58.1666 21.9805L48.9897 31.1582L32.9125 47.2372L28.9077 51.2419L27.5367 52.6141C26.9142 53.2391 26.2845 53.9206 25.5106 54.3575C24.3327 55.0353 22.929 55.2022 21.625 54.8194C19.9978 54.3528 19.0835 53.1722 17.9238 52.0331C17.6184 51.7334 17.3186 51.4269 17.0159 51.1244L12.0617 46.1719L5.032 39.1422L2.88453 36.995C1.71488 35.8269 0.471366 34.8069 0.149034 33.1284C0.123583 32.9959 0.050105 32.66 0 32.5516V31.4169C0.06736 31.2944 0.148922 30.8314 0.193124 30.6645C1.0647 27.3746 4.96703 25.887 7.81394 27.7461C8.55453 28.2297 9.1435 28.8842 9.76566 29.5069L11.7596 31.5037L19.2356 38.9794L21.6177 41.3628C22.0496 41.795 22.594 42.3681 23.0454 42.7569Z" fill="white"/>
</svg>
