<svg width="50" height="50" viewBox="0 0 50 50" fill="none" xmlns="http://www.w3.org/2000/svg">
<g clip-path="url(#clip0_117_647)">
<path d="M3.02417 0.584839C1.68571 0.584839 0.585938 1.6846 0.585938 3.02309V46.9684C0.585938 48.3069 1.68569 49.413 3.02417 49.413H33.9518C35.2903 49.413 36.39 48.3069 36.39 46.9684V40.663L33.235 43.8165C33.2339 43.8175 33.2327 43.8186 33.2316 43.8196C32.9408 44.109 32.5815 44.3206 32.1873 44.4347C32.1857 44.4352 32.184 44.4358 32.1824 44.4363L26.481 46.0639C26.4783 46.0645 26.4756 46.065 26.4729 46.0655C24.7194 46.5557 22.9739 44.8101 23.464 43.0567C23.4646 43.0536 23.4651 43.0505 23.4656 43.0475L25.0885 37.3699C25.1982 36.9694 25.4083 36.6034 25.6988 36.3066C25.7031 36.3025 25.7073 36.2984 25.7115 36.2943L36.3895 25.621V8.72336H30.6966C29.3582 8.72336 28.2568 7.62197 28.2568 6.28351V0.585308L3.02417 0.584839ZM29.886 1.06008V6.28304C29.886 6.74801 30.2317 7.09526 30.6966 7.09526H35.9212L29.886 1.06008ZM11.9776 7.09526H24.1846C24.2929 7.09295 24.4006 7.11228 24.5014 7.15214C24.6022 7.192 24.6939 7.25159 24.7714 7.32739C24.8488 7.40319 24.9103 7.49371 24.9523 7.59359C24.9943 7.69348 25.0159 7.80072 25.0159 7.90908C25.0159 8.01743 24.9943 8.12467 24.9523 8.22456C24.9103 8.32444 24.8488 8.41496 24.7714 8.49076C24.6939 8.56656 24.6022 8.62615 24.5014 8.66601C24.4006 8.70587 24.2929 8.7252 24.1846 8.72289H11.9776C11.8693 8.7252 11.7616 8.70587 11.6608 8.66601C11.56 8.62615 11.4683 8.56656 11.3908 8.49076C11.3134 8.41496 11.2519 8.32444 11.2099 8.22456C11.1679 8.12467 11.1463 8.01743 11.1463 7.90908C11.1463 7.80072 11.1679 7.69348 11.2099 7.59359C11.2519 7.49371 11.3134 7.40319 11.3908 7.32739C11.4683 7.25159 11.56 7.192 11.6608 7.15214C11.7616 7.11228 11.8693 7.09295 11.9776 7.09526ZM6.20467 11.9781C6.23062 11.9768 6.25661 11.9768 6.28255 11.9781H24.1846C24.2929 11.9757 24.4006 11.9952 24.5014 12.035C24.6022 12.0749 24.6939 12.1344 24.7714 12.2102C24.8488 12.286 24.9103 12.3765 24.9523 12.4764C24.9943 12.5763 25.0159 12.6835 25.0159 12.7919C25.0159 12.9002 24.9943 13.0076 24.9523 13.1074C24.9103 13.2073 24.8488 13.2978 24.7714 13.3736C24.6939 13.4494 24.6022 13.5089 24.5014 13.5488C24.4006 13.5887 24.2929 13.608 24.1846 13.6057H6.28255C6.06954 13.6113 5.8628 13.5332 5.70665 13.3882C5.5505 13.2432 5.45735 13.0428 5.44717 12.83C5.43698 12.6171 5.51057 12.4088 5.65216 12.2495C5.79376 12.0903 5.99209 11.9928 6.20467 11.9781ZM27.3619 11.9781C27.3879 11.9768 27.4139 11.9768 27.4398 11.9781H30.6966C30.805 11.9757 30.9126 11.9952 31.0134 12.035C31.1142 12.0749 31.2059 12.1344 31.2834 12.2102C31.3608 12.286 31.4223 12.3765 31.4643 12.4764C31.5063 12.5763 31.5279 12.6835 31.5279 12.7919C31.5279 12.9002 31.5063 13.0076 31.4643 13.1074C31.4223 13.2073 31.3608 13.2978 31.2834 13.3736C31.2059 13.4494 31.1142 13.5089 31.0134 13.5488C30.9126 13.5887 30.805 13.608 30.6966 13.6057H27.4398C27.2268 13.6113 27.0201 13.5332 26.8639 13.3882C26.7078 13.2432 26.6146 13.0428 26.6044 12.83C26.5942 12.6171 26.6678 12.4088 26.8094 12.2495C26.951 12.0903 27.1494 11.9928 27.3619 11.9781ZM6.20467 16.8625C6.23062 16.8613 6.25661 16.8613 6.28255 16.8625H30.6966C30.805 16.8601 30.9128 16.8794 31.0136 16.9192C31.1145 16.959 31.2063 17.0186 31.2838 17.0944C31.3613 17.1702 31.4229 17.2607 31.465 17.3606C31.507 17.4605 31.5287 17.5678 31.5287 17.6763C31.5287 17.7847 31.507 17.892 31.465 17.9919C31.4229 18.0919 31.3613 18.1824 31.2838 18.2582C31.2063 18.334 31.1145 18.3936 31.0136 18.4334C30.9128 18.4732 30.805 18.4925 30.6966 18.4901H6.28255C6.06965 18.4955 5.8631 18.4174 5.70709 18.2724C5.55109 18.1274 5.45804 17.9271 5.44786 17.7144C5.43768 17.5016 5.51118 17.2934 5.65263 17.1342C5.79408 16.975 5.99223 16.8775 6.20467 16.8625ZM45.7265 20.1193C44.7805 20.1193 43.8378 20.4758 43.1198 21.1938L42.4983 21.8153L47.7197 27.0334L48.3396 26.4135C49.7756 24.9776 49.7756 22.6297 48.3396 21.1938C47.6216 20.4758 46.6725 20.1193 45.7265 20.1193ZM9.61882 21.7437C9.622 21.7437 9.62518 21.7437 9.62836 21.7437C9.73739 21.7463 9.84479 21.7708 9.94418 21.8157C10.0436 21.8606 10.1329 21.9251 10.2069 22.0052C10.2809 22.0854 10.338 22.1795 10.3749 22.2821C10.4118 22.3848 10.4277 22.4938 10.4216 22.6027C10.4155 22.7116 10.3876 22.8181 10.3396 22.916C10.2915 23.0139 10.2242 23.1012 10.1418 23.1726C10.0594 23.244 9.96341 23.2981 9.85964 23.3317C9.75588 23.3652 9.64642 23.3777 9.53777 23.3682H6.28255C6.07745 23.3625 5.88208 23.2795 5.73554 23.1359C5.589 22.9922 5.50212 22.7985 5.49227 22.5936C5.48243 22.3887 5.55035 22.1876 5.68245 22.0306C5.81454 21.8736 6.00106 21.7723 6.20467 21.7469C6.23062 21.7457 6.25661 21.7457 6.28255 21.7469H9.53776C9.56471 21.7446 9.59177 21.7434 9.61882 21.7437ZM30.7777 21.7437C30.7803 21.7437 30.783 21.7437 30.7857 21.7437C30.8948 21.7461 31.0024 21.7703 31.1019 21.8151C31.2015 21.8598 31.291 21.9242 31.3652 22.0043C31.4394 22.0844 31.4967 22.1786 31.5338 22.2813C31.5708 22.384 31.5868 22.493 31.5808 22.602C31.5748 22.711 31.547 22.8177 31.4989 22.9157C31.4509 23.0138 31.3836 23.1011 31.3011 23.1726C31.2186 23.244 31.1225 23.2982 31.0187 23.3318C30.9148 23.3653 30.8052 23.3778 30.6965 23.3682H12.7946C12.5891 23.3638 12.3928 23.2818 12.2453 23.1387C12.0977 22.9956 12.0098 22.802 11.9991 22.5967C11.9885 22.3914 12.0559 22.1897 12.1878 22.0321C12.3197 21.8745 12.5064 21.7726 12.7103 21.7469C12.7384 21.7455 12.7665 21.7455 12.7946 21.7469H30.6966C30.7236 21.7446 30.7506 21.7434 30.7777 21.7437ZM41.3476 22.966L27.4398 36.8674L29.4759 38.9035L43.3805 24.9989L41.3476 22.966ZM44.5313 26.1497L30.6267 40.0543L32.6612 42.0887L46.5673 28.1858L44.5313 26.1497ZM6.28255 26.6249H30.6966C30.805 26.6226 30.9126 26.642 31.0134 26.6818C31.1142 26.7217 31.2059 26.7813 31.2834 26.8571C31.3608 26.9329 31.4223 27.0234 31.4643 27.1233C31.5063 27.2231 31.5279 27.3304 31.5279 27.4387C31.5279 27.5471 31.5063 27.6543 31.4643 27.7542C31.4223 27.8541 31.3608 27.9446 31.2834 28.0204C31.2059 28.0962 31.1142 28.1558 31.0134 28.1957C30.9126 28.2355 30.805 28.2549 30.6966 28.2526H6.28255C6.17422 28.2549 6.06652 28.2355 5.96577 28.1957C5.86501 28.1558 5.77323 28.0962 5.6958 28.0204C5.61837 27.9446 5.55685 27.8541 5.51486 27.7542C5.47286 27.6543 5.45123 27.5471 5.45123 27.4387C5.45123 27.3304 5.47286 27.2231 5.51486 27.1233C5.55685 27.0234 5.61837 26.9329 5.6958 26.8571C5.77323 26.7813 5.86501 26.7217 5.96577 26.6818C6.06652 26.642 6.17422 26.6226 6.28255 26.6249ZM6.28255 31.5093H20.9278C21.0361 31.507 21.1438 31.5263 21.2446 31.5662C21.3453 31.6061 21.4371 31.6657 21.5146 31.7415C21.592 31.8172 21.6535 31.9078 21.6955 32.0077C21.7375 32.1075 21.7591 32.2148 21.7591 32.3231C21.7591 32.4315 21.7375 32.5387 21.6955 32.6386C21.6535 32.7385 21.592 32.829 21.5146 32.9048C21.4371 32.9806 21.3453 33.0402 21.2446 33.0801C21.1438 33.1199 21.0361 33.1393 20.9278 33.137H6.28255C6.17422 33.1393 6.06652 33.1199 5.96577 33.0801C5.86501 33.0402 5.77323 32.9806 5.6958 32.9048C5.61837 32.829 5.55685 32.7385 5.51486 32.6386C5.47286 32.5387 5.45123 32.4315 5.45123 32.3231C5.45123 32.2148 5.47286 32.1075 5.51486 32.0077C5.55685 31.9078 5.61837 31.8172 5.6958 31.7415C5.77323 31.6657 5.86501 31.6061 5.96577 31.5662C6.06652 31.5263 6.17422 31.507 6.28255 31.5093ZM24.1846 31.5093H27.4398C27.5482 31.507 27.6559 31.5263 27.7566 31.5662C27.8574 31.6061 27.9491 31.6657 28.0266 31.7415C28.104 31.8172 28.1655 31.9078 28.2075 32.0077C28.2495 32.1075 28.2711 32.2148 28.2711 32.3231C28.2711 32.4315 28.2495 32.5387 28.2075 32.6386C28.1655 32.7385 28.104 32.829 28.0266 32.9048C27.9491 32.9806 27.8574 33.0402 27.7566 33.0801C27.6559 33.1199 27.5482 33.1393 27.4398 33.137H24.1846C24.0763 33.1393 23.9686 33.1199 23.8678 33.0801C23.7671 33.0402 23.6753 32.9806 23.5979 32.9048C23.5204 32.829 23.4589 32.7385 23.4169 32.6386C23.3749 32.5387 23.3533 32.4315 23.3533 32.3231C23.3533 32.2148 23.3749 32.1075 23.4169 32.0077C23.4589 31.9078 23.5204 31.8172 23.5979 31.7415C23.6753 31.6657 23.7671 31.6061 23.8678 31.5662C23.9686 31.5263 24.0763 31.507 24.1846 31.5093ZM6.20467 36.3921C6.23062 36.3909 6.25661 36.3909 6.28255 36.3921H22.5554C22.6637 36.3898 22.7714 36.4092 22.8722 36.4491C22.973 36.489 23.0647 36.5484 23.1422 36.6242C23.2196 36.7 23.2811 36.7906 23.3231 36.8904C23.3651 36.9903 23.3867 37.0976 23.3867 37.2059C23.3867 37.3143 23.3651 37.4216 23.3231 37.5215C23.2811 37.6214 23.2196 37.7118 23.1422 37.7876C23.0647 37.8634 22.973 37.923 22.8722 37.9629C22.7714 38.0027 22.6637 38.022 22.5554 38.0197H6.28255C6.06954 38.0253 5.8628 37.9473 5.70665 37.8023C5.5505 37.6573 5.45735 37.4569 5.44717 37.244C5.43698 37.0312 5.51057 36.8228 5.65216 36.6636C5.79376 36.5043 5.99209 36.4069 6.20467 36.3921ZM26.5291 38.2566L25.0318 43.4938C24.9929 43.6328 24.9917 43.7797 25.0283 43.9194C25.065 44.059 25.138 44.1864 25.2401 44.2885C25.3422 44.3905 25.4696 44.4636 25.6092 44.5002C25.7489 44.5368 25.8957 44.5356 26.0347 44.4967L31.2736 43.0011L26.5291 38.2566ZM6.20467 41.2766C6.23062 41.2754 6.25661 41.2754 6.28255 41.2766H9.53776C9.64615 41.2742 9.75392 41.2935 9.85476 41.3333C9.9556 41.3731 10.0475 41.4326 10.125 41.5084C10.2025 41.5843 10.2641 41.6747 10.3061 41.7746C10.3481 41.8746 10.3698 41.9819 10.3698 42.0903C10.3698 42.1987 10.3481 42.3061 10.3061 42.406C10.2641 42.5059 10.2025 42.5965 10.125 42.6723C10.0475 42.7481 9.9556 42.8076 9.85476 42.8474C9.75392 42.8873 9.64615 42.9065 9.53776 42.9041H6.28255C6.06965 42.9095 5.8631 42.8314 5.70709 42.6865C5.55109 42.5415 5.45804 42.3412 5.44786 42.1284C5.43768 41.9157 5.51118 41.7075 5.65263 41.5482C5.79408 41.389 5.99223 41.2915 6.20467 41.2766ZM12.7103 41.2766C12.7384 41.2751 12.7665 41.2751 12.7946 41.2766H20.9278C21.0362 41.2742 21.144 41.2935 21.2448 41.3333C21.3456 41.3731 21.4375 41.4326 21.515 41.5084C21.5925 41.5843 21.6541 41.6747 21.6961 41.7746C21.7382 41.8746 21.7598 41.9819 21.7598 42.0903C21.7598 42.1987 21.7382 42.3061 21.6961 42.406C21.6541 42.5059 21.5925 42.5965 21.515 42.6723C21.4375 42.7481 21.3456 42.8076 21.2448 42.8474C21.144 42.8873 21.0362 42.9065 20.9278 42.9041H12.7946C12.5816 42.9105 12.3746 42.8332 12.2179 42.6888C12.0612 42.5444 11.9673 42.3443 11.9563 42.1315C11.9453 41.9187 12.018 41.7101 12.159 41.5503C12.2999 41.3905 12.4978 41.2923 12.7103 41.2766Z" fill="white"/>
</g>
<defs>
<clipPath id="clip0_117_647">
<rect width="50" height="50" fill="white"/>
</clipPath>
</defs>
</svg>
