<svg width="62" height="62" viewBox="0 0 62 62" fill="none" xmlns="http://www.w3.org/2000/svg">
<path fill-rule="evenodd" clip-rule="evenodd" d="M23.8959 2.58334C23.8959 1.51329 24.7633 0.645844 25.8334 0.645844H36.1667C37.2367 0.645844 38.1042 1.51329 38.1042 2.58334C38.1042 3.65339 37.2367 4.52084 36.1667 4.52084H25.8334C24.7633 4.52084 23.8959 3.65339 23.8959 2.58334ZM31 9.68751C17.8027 9.68751 7.10419 20.386 7.10419 33.5833C7.10419 46.7806 17.8027 57.4792 31 57.4792C44.1972 57.4792 54.8959 46.7806 54.8959 33.5833C54.8959 20.386 44.1972 9.68751 31 9.68751ZM3.22919 33.5833C3.22919 18.2459 15.6626 5.81251 31 5.81251C37.9714 5.81251 44.3429 8.38127 49.2195 12.6239L52.8801 8.96332C53.6367 8.20669 54.8633 8.20669 55.62 8.96332C56.3766 9.71996 56.3766 10.9467 55.62 11.7034L51.9594 15.364C56.202 20.2405 58.7709 26.612 58.7709 33.5833C58.7709 48.9208 46.3375 61.3542 31 61.3542C15.6626 61.3542 3.22919 48.9208 3.22919 33.5833ZM31 23.8958C32.07 23.8958 32.9375 24.7633 32.9375 25.8333V36.1667C32.9375 37.2367 32.07 38.1042 31 38.1042C29.93 38.1042 29.0625 37.2367 29.0625 36.1667V25.8333C29.0625 24.7633 29.93 23.8958 31 23.8958Z" fill="white"/>
</svg>
