<svg width="30" height="30" viewBox="0 0 30 30" fill="none" xmlns="http://www.w3.org/2000/svg">
<g clip-path="url(#clip0_797_8193)">
<path d="M2.84386 29.8121C2.10834 29.8549 1.38499 29.6103 0.826333 29.1301C-0.275444 28.0218 -0.275444 26.2317 0.826333 25.1234L24.9517 0.997991C26.0976 -0.0743101 27.8958 -0.0147016 28.9681 1.13124C29.9377 2.16752 29.9942 3.7603 29.1004 4.86263L4.83293 29.1301C4.28148 29.6034 3.56974 29.8475 2.84386 29.8121Z" fill="white"/>
<path d="M26.9408 29.8121C26.1954 29.8089 25.4809 29.513 24.9517 28.988L0.82624 4.86254C-0.1945 3.67055 -0.0557251 1.87668 1.13626 0.855847C2.20014 -0.0552205 3.76915 -0.0552205 4.83293 0.855847L29.1004 24.9813C30.2461 26.0538 30.3053 27.8521 29.2327 28.9978C29.19 29.0434 29.146 29.0874 29.1004 29.1301C28.5062 29.6468 27.7242 29.8938 26.9408 29.8121Z" fill="white"/>
</g>
<defs>
<clipPath id="clip0_797_8193">
<rect width="30" height="30" fill="white"/>
</clipPath>
</defs>
</svg>
