<svg width="50" height="50" viewBox="0 0 50 50" fill="none" xmlns="http://www.w3.org/2000/svg">
<g clip-path="url(#clip0_36_57)">
<path d="M31.7167 21.8067C31.7167 20.9783 31.045 20.3067 30.2167 20.3067H13.7167C12.8883 20.3067 12.2167 20.9783 12.2167 21.8067C12.2167 22.635 12.8883 23.3067 13.7167 23.3067H30.2167C31.045 23.3067 31.7167 22.635 31.7167 21.8067Z" fill="white"/>
<path d="M13.7134 27.8817C12.885 27.8817 12.2134 28.5533 12.2134 29.3817C12.2134 30.21 12.885 30.8817 13.7134 30.8817H22.4617C23.29 30.8817 23.9617 30.21 23.9617 29.3817C23.9617 28.5533 23.29 27.8817 22.4617 27.8817H13.7134Z" fill="white"/>
<path d="M41.6 21.89C40.7717 21.89 40.1 22.5617 40.1 23.39V35.5217C40.1 37.7917 38.2534 39.6384 35.9834 39.6384H25.95C25.625 39.6384 25.3084 39.7434 25.0484 39.94L16.385 46.455C16.165 46.62 15.9584 46.5517 15.855 46.495C15.75 46.4417 15.5767 46.31 15.5834 46.0417L15.75 41.1917C15.7634 40.785 15.6117 40.39 15.33 40.0984C15.0484 39.805 14.6584 39.64 14.2517 39.64H7.28335C5.01335 39.64 3.16669 37.795 3.16669 35.5233V15.69C3.16669 13.4117 5.01335 11.5583 7.28335 11.5583H25.7667C26.595 11.5583 27.2667 10.8867 27.2667 10.0583C27.2667 9.23002 26.595 8.55835 25.7667 8.55835H7.28335C3.36002 8.55835 0.166687 11.7583 0.166687 15.6917V35.5233C0.166687 39.4467 3.36002 42.6417 7.28335 42.6417H12.6984L12.585 45.945C12.545 47.3017 13.2667 48.535 14.4717 49.16C14.9867 49.4284 15.5417 49.56 16.0917 49.56C16.83 49.56 17.5617 49.3217 18.185 48.8567L26.45 42.6417H35.9817C39.905 42.6417 43.0984 39.4483 43.0984 35.5233V23.3917C43.1 22.5617 42.4284 21.89 41.6 21.89Z" fill="white"/>
<path d="M49.7083 7.60168C49.4367 6.76835 48.7683 6.14501 47.92 5.93501L44.0867 4.98001L41.9933 1.63001C41.065 0.140014 38.6417 0.143347 37.715 1.63001L35.6217 4.98001L31.7883 5.93501C30.94 6.14501 30.27 6.76835 30 7.60168C29.73 8.43501 29.9033 9.33335 30.4667 10.005L33.0067 13.0283L32.73 16.9683C32.6683 17.8417 33.055 18.67 33.7633 19.185C34.2033 19.505 34.72 19.67 35.2433 19.67C35.5617 19.67 35.8833 19.6083 36.1917 19.4833L39.855 18.0033L43.5167 19.4833C44.3283 19.8133 45.235 19.7 45.945 19.1867C46.6533 18.6717 47.04 17.8433 46.98 16.9683L46.7033 13.0283L49.2433 10.0033C49.805 9.33335 49.98 8.43501 49.7083 7.60168ZM44.015 11.5633C43.765 11.8617 43.64 12.245 43.6683 12.635L43.935 16.4183L40.4183 14.9967C40.2383 14.9233 40.0467 14.8867 39.8567 14.8867C39.6667 14.8867 39.475 14.9233 39.295 14.9967L35.78 16.4183L36.045 12.635C36.0717 12.2467 35.9467 11.8617 35.6983 11.5633L33.26 8.66001L36.94 7.74168C37.3167 7.64668 37.6433 7.41168 37.8483 7.08168L39.8583 3.86668L41.8683 7.08168C42.075 7.41168 42.4 7.64835 42.7767 7.74168L46.4567 8.66001L44.015 11.5633Z" fill="white"/>
</g>
<defs>
<clipPath id="clip0_36_57">
<rect width="50" height="50" fill="white"/>
</clipPath>
</defs>
</svg>
