<svg width="50" height="50" viewBox="0 0 50 50" fill="none" xmlns="http://www.w3.org/2000/svg">
<path d="M41.2245 17.8838L37.8736 19.2374C37.4423 19.4124 36.9888 19.5007 36.5268 19.5007C35.5367 19.5007 34.5788 19.0829 33.9012 18.3543C33.2269 17.6308 32.8787 16.6474 32.9484 15.6573L33.2014 12.0533L30.8764 9.28839C30.3601 8.67358 30.1019 7.92121 30.0662 7.15015H8.03329C4.04212 7.15015 0.78125 10.411 0.78125 14.4192V34.6298C0.78125 38.6379 4.04212 41.8818 8.03329 41.8818H13.553L13.4341 45.2616C13.4001 46.6372 14.1304 47.894 15.3533 48.5394C15.8798 48.8111 16.4402 48.947 17.0177 48.947C17.7649 48.947 18.5122 48.6923 19.1406 48.2167L27.5645 41.8818H37.2792C41.2704 41.8818 44.5312 38.6379 44.5312 34.6298V19.2205L41.2245 17.8838ZM23.5003 29.9083H14.5856C13.7415 29.9083 13.0571 29.2239 13.0571 28.3798C13.0571 27.5357 13.7415 26.8512 14.5856 26.8512H23.5003C24.3444 26.8512 25.0289 27.5357 25.0289 28.3798C25.0289 29.2239 24.3444 29.9083 23.5003 29.9083ZM31.4028 22.1875H14.589C13.7449 22.1875 13.0605 21.5031 13.0605 20.659C13.0605 19.8149 13.7449 19.1304 14.589 19.1304H31.4028C32.2469 19.1304 32.9314 19.8149 32.9314 20.659C32.9314 21.5031 32.2469 22.1875 31.4028 22.1875Z" fill="white"/>
<path d="M42.1077 0.906939L44.5686 4.84546L49.0744 5.96808C49.8217 6.1549 50.1155 7.05843 49.6213 7.64947L46.6355 11.2059L46.9599 15.8373C47.0143 16.605 46.2449 17.1654 45.5299 16.8767L41.2245 15.1359L36.9192 16.8767C36.2059 17.1654 35.4348 16.6067 35.4891 15.8373L35.8135 11.2059L32.8278 7.64947C32.3319 7.06013 32.6274 6.1549 33.3747 5.96808L37.8805 4.84546L40.3414 0.906939C40.7473 0.253066 41.7001 0.253066 42.1077 0.906939Z" fill="white"/>
</svg>
