<svg width="50" height="50" viewBox="0 0 50 50" fill="none" xmlns="http://www.w3.org/2000/svg">
<path d="M36.6963 0.761719C38.3115 0.761719 39.626 2.10995 39.626 3.7666C39.6259 5.06355 38.8163 6.16141 37.6914 6.58105C37.6943 6.90247 37.6934 7.30293 37.6846 7.77246H46.4619C48.0771 7.77246 49.3915 9.12078 49.3916 10.7773C49.3916 20.5159 40.8369 25.2842 32.2344 25.7539C31.0265 26.9957 29.6424 27.8688 28.0889 28.3516C28.29 30.0984 28.71 32.4326 29.5625 34.8164H30.8369C31.3769 34.8164 31.8134 35.2646 31.8135 35.8174V42.9297C34.0391 43.3954 35.7197 45.419 35.7197 47.8369C35.7197 48.3898 35.2832 48.8389 34.7432 48.8389H15.2119C14.6721 48.8386 14.2354 48.3896 14.2354 47.8369C14.2354 45.4182 15.9162 43.3956 18.1416 42.9297V35.8174C18.1417 35.2647 18.5784 34.8166 19.1182 34.8164H20.3926C21.2451 32.4326 21.665 30.0974 21.8662 28.3516C20.3127 27.8698 18.9286 26.9958 17.7207 25.7539C9.1183 25.284 0.563477 20.5158 0.563477 10.7773C0.563575 9.12092 1.87819 7.7727 3.49316 7.77246H12.2705C12.2617 7.30294 12.2607 6.90247 12.2637 6.58105C11.1389 6.16133 10.3292 5.06344 10.3291 3.7666C10.3291 2.1101 11.6438 0.761956 13.2588 0.761719H36.6963ZM19.1182 44.832C17.8449 44.8322 16.7588 45.6693 16.3555 46.835H33.5996C33.1962 45.6693 32.1102 44.832 30.8369 44.832H19.1182ZM20.0947 42.8291H29.8604V36.8193H20.0947V42.8291ZM27.9297 40.7051H22.0703V38.7021H27.9297V40.7051ZM26.167 28.7402C25.7785 28.7813 25.3836 28.8066 24.9775 28.8066C24.5714 28.8066 24.1766 28.7813 23.7881 28.7402C23.5869 30.4139 23.1992 32.5719 22.4658 34.8164H27.4902C26.7568 32.5728 26.3682 30.4149 26.167 28.7402ZM14.2207 6.77148C14.2198 9.84076 14.5823 19.5047 18.9629 24.2041C20.5937 25.9528 22.5617 26.8026 24.9775 26.8027C27.3934 26.8027 29.3614 25.9527 30.9922 24.2041C35.3729 19.5038 35.7343 9.83979 35.7344 6.77148H14.2207ZM3.49316 9.77637C2.95436 9.7766 2.5167 10.2257 2.5166 10.7773H2.51758C2.51758 18.5396 9.00114 22.6554 16.0273 23.584C15.587 22.8829 15.1972 22.1365 14.8535 21.3623C11.496 20.6881 5.90132 18.7151 4.69336 12.9922C4.63086 12.6967 4.70312 12.3867 4.8877 12.1514C5.07218 11.9161 5.35173 11.7794 5.64746 11.7793H12.5166C12.4434 11.0703 12.3896 10.3982 12.3516 9.77637H3.49316ZM37.6045 9.77637C37.5664 10.3982 37.5127 11.0703 37.4395 11.7793H44.3086C44.6033 11.7793 44.8838 11.9163 45.0684 12.1514C45.2529 12.3867 45.3242 12.6967 45.2627 12.9922C44.0546 18.7162 38.4599 20.6882 35.1025 21.3623C34.7578 22.1365 34.3691 22.8829 33.9287 23.584C40.9551 22.6565 47.4385 18.5398 47.4385 10.7773C47.4384 10.2255 47.0009 9.77637 46.4619 9.77637H37.6045ZM24.123 9.21289C24.4512 8.5288 25.5459 8.5288 25.874 9.21289L27.2705 12.1143L30.3926 12.5791C30.7606 12.6342 31.0663 12.8984 31.1816 13.2607C31.2959 13.6233 31.2002 14.0217 30.9346 14.2881L28.6758 16.5469L29.209 19.7363C29.2724 20.1119 29.122 20.4914 28.8213 20.7158C28.6504 20.843 28.4492 20.9072 28.2471 20.9072C28.0918 20.9072 27.9355 20.8691 27.793 20.792H27.79L24.9971 19.2871L22.2041 20.792C21.8779 20.9693 21.4785 20.9402 21.1758 20.7158C20.8761 20.4914 20.7256 20.1119 20.7881 19.7363L21.3213 16.5469L19.0625 14.2881C18.7959 14.0217 18.7012 13.6233 18.8154 13.2607C18.9317 12.8984 19.2365 12.6342 19.6045 12.5791L22.7266 12.1143L24.123 9.21289ZM6.96973 13.7822C8.23234 16.9291 11.4522 18.4104 13.9912 19.1035C13.4161 17.3308 13.0303 15.5008 12.7715 13.7822H6.96973ZM37.1846 13.7822C36.9258 15.5009 36.54 17.3307 35.9648 19.1035C38.5039 18.4104 41.7236 16.9302 42.9863 13.7822H37.1846ZM24.2529 13.4727C24.1103 13.7681 23.8359 13.9734 23.5176 14.0205L21.8447 14.2695L23.0547 15.4795C23.2842 15.7099 23.3896 16.0417 23.335 16.3662L23.0498 18.0752H23.0518L24.5479 17.2676C24.6904 17.1905 24.8457 17.1523 25.002 17.1523C25.1582 17.1523 25.3135 17.1905 25.4561 17.2676L26.9521 18.0752L26.667 16.3662C26.6123 16.0417 26.7178 15.7089 26.9473 15.4795L28.1572 14.2695L26.4844 14.0205C26.166 13.9734 25.8916 13.7681 25.749 13.4727L25.001 11.9189L24.2529 13.4727ZM13.2588 2.76465C12.7199 2.76489 12.2822 3.21486 12.2822 3.7666C12.2824 4.31821 12.72 4.76734 13.2588 4.76758H36.6963C37.2353 4.76758 37.6727 4.31835 37.6729 3.7666C37.6729 3.21472 37.2354 2.76465 36.6963 2.76465H13.2588Z" fill="white"/>
</svg>
