<svg width="50" height="50" viewBox="0 0 50 50" fill="none" xmlns="http://www.w3.org/2000/svg">
<g clip-path="url(#clip0_107_373)">
<path d="M26.9062 0C27.0994 0.000520186 27.288 0.078912 27.4248 0.214844L36.5195 9.30859C36.6558 9.44524 36.7347 9.63409 36.7354 9.82715V15.7422C37.8399 16.3283 38.8765 17.0857 39.8057 18.0146C41.6811 19.8899 42.9193 22.2562 43.3857 24.8574C43.4572 25.2564 43.1919 25.6374 42.793 25.709C42.3942 25.7801 42.012 25.5151 41.9404 25.1162C41.5272 22.8117 40.4308 20.7149 38.7686 19.0527C34.305 14.5896 27.0417 14.5896 22.5781 19.0527C20.4159 21.2146 19.2246 24.089 19.2246 27.1465C19.2246 30.204 20.4159 33.0783 22.5781 35.2402C24.7951 37.4569 27.7031 38.5723 30.6152 38.5869H30.6729C30.6767 38.5869 30.6809 38.5878 30.6846 38.5879C33.6124 38.585 36.5397 37.4689 38.7686 35.2402C40.7406 33.2683 41.9233 30.6511 42.0986 27.8711C42.1243 27.4668 42.4728 27.1601 42.877 27.1846C43.2814 27.2102 43.589 27.5594 43.5635 27.9639C43.423 30.1906 42.7095 32.3243 41.5117 34.1709L43.293 35.9521L43.3213 35.9238C43.6079 35.6373 44.0726 35.6376 44.3594 35.9238L48.9902 40.5537C50.3365 41.8451 50.3365 44.1693 48.9902 45.4609C47.6986 46.807 45.3737 46.8071 44.082 45.4609L39.4521 40.8311C39.1558 40.5469 39.1722 40.0338 39.4805 39.7646L37.6982 37.9834C37.3838 38.1873 37.0628 38.377 36.7354 38.5508V47.7988C36.7351 49.0126 35.7471 50 34.5332 50H2.20215C0.988087 50 9.92317e-05 49.0124 0 47.7988V11.3057C0 10.9004 0.32824 10.5715 0.733398 10.5713C1.13877 10.5713 1.46777 10.9004 1.46777 11.3057V47.7988C1.46777 48.2035 1.79746 48.5322 2.20215 48.5322H34.5332C34.9379 48.5322 35.2666 48.2034 35.2666 47.7988V39.2158C33.7905 39.775 32.2315 40.0555 30.6729 40.0557H14.4043C13.9991 40.0555 13.6709 39.7265 13.6709 39.3213C13.6709 38.9161 13.999 38.588 14.4043 38.5879H24.6787C23.6336 38.0411 22.6483 37.3405 21.7559 36.4883H14.4053C13.9999 36.4883 13.6709 36.1603 13.6709 35.7549C13.6709 35.3495 13.9999 35.0205 14.4053 35.0205H20.4346C19.1923 33.4123 18.3577 31.5508 17.9834 29.5645H14.4053C13.9999 29.5645 13.6709 29.2363 13.6709 28.8311C13.6709 28.4258 13.9999 28.0967 14.4053 28.0967H17.792C17.7693 27.7821 17.7578 27.4651 17.7578 27.1465C17.7578 26.7581 17.7748 26.3725 17.8086 25.9902H14.4053C13.9999 25.9902 13.6709 25.6611 13.6709 25.2559C13.671 24.8506 13.9999 24.5225 14.4053 24.5225H18.0234C18.4153 22.6147 19.2338 20.8271 20.4316 19.2754H14.4043C13.9991 19.2751 13.6709 18.9461 13.6709 18.541C13.6709 18.1359 13.9992 17.8079 14.4043 17.8076H21.7529C22.6467 16.9538 23.6337 16.2525 24.6807 15.7051H14.4043C13.9993 15.7048 13.6711 15.3766 13.6709 14.9717C13.6709 14.5666 13.9991 14.2376 14.4043 14.2373H30.791C30.7985 14.2373 30.8062 14.2393 30.8135 14.2402C32.3256 14.2566 33.8356 14.5346 35.2676 15.0771V10.5615H28.374C27.1601 10.5614 26.1729 9.57325 26.1729 8.35938V1.46777H2.20215C1.79749 1.46777 1.46799 1.79666 1.46777 2.20117V8.37012C1.46761 8.77522 1.13946 9.10329 0.734375 9.10352C0.329004 9.10352 0.000158572 8.77526 0 8.37012V2.20117C0.000211862 0.987386 0.988216 0 2.20215 0H26.9062ZM41.0088 40.3125L45.1201 44.4229C45.8655 45.1995 47.2068 45.1997 47.9521 44.4229C48.7289 43.6775 48.7288 42.3371 47.9521 41.5918L43.8408 37.4805L41.0088 40.3125ZM9.87109 34.2959C10.7763 34.2959 11.5135 35.0315 11.5137 35.9365V39.1475C11.5137 40.0525 10.7764 40.7891 9.87109 40.7891H6.66016C5.75507 40.7888 5.01856 40.0524 5.01855 39.1475V35.9365C5.01877 35.0317 5.75529 34.2961 6.66016 34.2959H9.87109ZM6.66016 35.7627C6.56477 35.7629 6.48752 35.841 6.4873 35.9365V39.1475C6.48731 39.2431 6.56454 39.3211 6.66016 39.3213H9.87109C9.96689 39.3213 10.0449 39.2433 10.0449 39.1475V35.9365C10.0447 35.8409 9.96686 35.7627 9.87109 35.7627H6.66016ZM40.6328 35.3682C40.3727 35.6831 40.0968 35.9871 39.8057 36.2783C39.5128 36.5711 39.2086 36.8466 38.8955 37.1055L40.5176 38.7275L42.2549 36.9902L40.6328 35.3682ZM23.917 20.3916C27.6422 16.667 33.7034 16.6671 37.4287 20.3916C39.2333 22.1959 40.2275 24.5948 40.2275 27.1465C40.2275 29.6981 39.2334 32.0971 37.4287 33.9014C35.6241 35.7057 33.2249 36.6992 30.6729 36.6992C28.1209 36.6991 25.7215 35.7057 23.917 33.9014C23.6016 33.586 23.3062 33.2465 23.0391 32.8926C22.795 32.569 22.859 32.1084 23.1826 31.8643C23.5064 31.6202 23.9668 31.6843 24.2109 32.0078C24.4373 32.3078 24.6873 32.5963 24.9551 32.8643C26.4823 34.3912 28.5132 35.2323 30.6729 35.2324C32.8326 35.2324 34.8634 34.3911 36.3906 32.8643C37.918 31.3371 38.7598 29.3062 38.7598 27.1465C38.7597 24.9869 37.9179 22.9568 36.3906 21.4297C33.2379 18.2774 28.1078 18.2773 24.9551 21.4297C22.8054 23.5791 22.0445 26.7151 22.9697 29.6133C23.0929 29.9993 22.8802 30.4119 22.4941 30.5352C22.1085 30.6581 21.6957 30.4454 21.5723 30.0596C20.4792 26.6358 21.3773 22.931 23.917 20.3916ZM32.0928 23.708C32.9688 22.8098 34.413 22.7913 35.3115 23.667C36.2101 24.5433 36.2287 25.9873 35.3525 26.8857L31.5137 30.8213C31.0815 31.2643 30.5026 31.5088 29.8838 31.5088C29.2879 31.5088 28.7241 31.2797 28.2969 30.8643L26.2734 28.8965C25.3736 28.0216 25.3527 26.5774 26.2275 25.6777C27.1026 24.7781 28.5465 24.7584 29.4463 25.6328L29.8408 26.0166L32.0928 23.708ZM9.87109 23.7969C10.7765 23.7969 11.5137 24.5334 11.5137 25.4385V28.6484C11.5137 29.5535 10.7764 30.29 9.87109 30.29H6.66016C5.75507 30.2898 5.01855 29.5534 5.01855 28.6484V25.4385C5.01855 24.5335 5.75516 23.7971 6.66016 23.7969H9.87109ZM34.2871 24.7178C33.9683 24.4072 33.4558 24.4136 33.1445 24.7324L30.3809 27.5664C30.0982 27.856 29.634 27.862 29.3438 27.5801L28.4238 26.6855C28.1046 26.3751 27.5912 26.3815 27.2803 26.7012C26.9697 27.0204 26.9769 27.533 27.2959 27.8438L29.3203 29.8125C29.6255 30.1212 30.1662 30.1141 30.4629 29.7969L34.3018 25.8613C34.6128 25.5423 34.6063 25.029 34.2871 24.7178ZM6.66016 25.2646C6.56464 25.2649 6.4873 25.3428 6.4873 25.4385V28.6484C6.4873 28.7441 6.56454 28.822 6.66016 28.8223H9.87109C9.96689 28.8223 10.0449 28.7442 10.0449 28.6484V25.4385C10.0449 25.3427 9.96699 25.2646 9.87109 25.2646H6.66016ZM9.87109 13.5068C10.7765 13.5068 11.5137 14.2433 11.5137 15.1484V18.3584C11.5137 19.2635 10.7764 20 9.87109 20H6.66016C5.75517 19.9998 5.01855 19.2633 5.01855 18.3584V15.1484C5.01855 14.2434 5.75516 13.5071 6.66016 13.5068H9.87109ZM6.66016 14.9746C6.56464 14.9748 6.4873 15.0528 6.4873 15.1484V18.3584C6.4873 18.4541 6.56454 18.532 6.66016 18.5322H9.87109C9.96689 18.5322 10.0449 18.4542 10.0449 18.3584V15.1484C10.0449 15.0526 9.96699 14.9746 9.87109 14.9746H6.66016ZM27.6406 8.35938C27.6406 8.764 27.9694 9.09366 28.374 9.09375H34.2295L27.6406 2.50586V8.35938Z" fill="white"/>
</g>
<defs>
<clipPath id="clip0_107_373">
<rect width="50" height="50" fill="white"/>
</clipPath>
</defs>
</svg>
