<svg width="50" height="50" viewBox="0 0 50 50" fill="none" xmlns="http://www.w3.org/2000/svg">
<path d="M47.0703 26.7347V25C47.0703 12.8836 37.1164 3.02734 25 3.02734C12.8836 3.02734 2.92969 12.8836 2.92969 25V26.7347C1.22832 27.3414 0 28.9521 0 30.8594V42.5781C0 45.0014 1.97129 46.9727 4.39453 46.9727H10.2539C11.0636 46.9727 11.7188 46.3175 11.7188 45.5078V27.9297C11.7188 27.12 11.0636 26.4648 10.2539 26.4648H5.85938V25C5.85938 14.5 14.5 5.95703 25 5.95703C35.5 5.95703 44.1406 14.5 44.1406 25V26.4648H39.7461C38.9364 26.4648 38.2812 27.12 38.2812 27.9297V45.5078C38.2812 46.3175 38.9364 46.9727 39.7461 46.9727H45.6055C48.0287 46.9727 50 45.0014 50 42.5781V30.8594C50 28.9521 48.7717 27.3414 47.0703 26.7347Z" fill="white"/>
</svg>
