<svg width="24" height="24" viewBox="0 0 24 24" fill="none" xmlns="http://www.w3.org/2000/svg">
<path d="M14.1646 18.123L14.1281 13.8089C14.6559 13.4304 15.2465 12.3671 15.6176 11.727C15.8737 11.2817 16.1873 9.36677 15.4033 8.54848C15.074 8.20892 14.6298 8.02523 14.1437 7.83597L14.1228 6.03797C14.1124 4.89683 14.9277 4.00061 15.9468 3.92824C16.8928 3.86144 17.9433 4.64076 17.9747 5.76521L18.0322 7.87493L20.29 7.9306C21.3562 7.95843 22.0147 9.13853 21.8841 10.1015C21.7325 11.226 20.844 11.855 19.7726 11.816C19.1977 11.7938 18.6541 11.8049 18.0217 11.816L17.9904 18.0673C17.9904 19.1249 17.0444 19.8709 16.1977 19.921C15.2674 19.9766 14.1803 19.3253 14.1699 18.1285L14.1646 18.123Z" fill="white"/>
<path d="M9.12027 15.4327L6.89081 18.7527C6.58177 19.2128 5.33459 20.3435 4.53993 19.7615C3.77286 18.5366 4.2309 16.5412 4.5896 15.1777C4.84897 14.18 5.40082 13.3929 5.83126 12.4618L6.13477 11.8022C6.85217 10.2502 9.60589 7.99437 11.8188 7.92786C12.9998 7.8946 14.6718 8.07752 15.45 9.06966C16.4709 10.3777 14.9478 12.3121 14.0538 13.2932C13.9379 13.4151 13.7448 13.6812 13.6344 13.7698C12.5804 14.629 11.3111 15.089 9.94252 15.1223C9.68315 15.0779 9.28031 15.1832 9.12579 15.4216L9.12027 15.4327ZM11.5042 12.0572C12.3431 11.8077 13.5957 11.4197 13.673 10.4664C13.6896 10.2946 13.2481 10.1006 13.0825 10.1172L11.3111 10.278C11.2118 10.289 9.50656 10.9209 9.84871 11.6969C10.0419 12.1348 11.3828 12.096 11.5042 12.0572Z" fill="white"/>
<path d="M5.16554 12.7578C4.39549 14.9603 3.67677 17.426 4.33902 19.8345C3.30714 20.2178 1.98779 19.3311 1.94672 17.9809C1.87998 15.8814 1.89538 13.8333 1.93132 11.7109C1.95698 10.2578 3.33795 9.2852 4.4879 9.76003C5.28875 10.0861 5.86373 10.8642 5.78159 11.8081C5.63271 12.0655 5.25795 12.4946 5.16041 12.7635L5.16554 12.7578Z" fill="white"/>
<path d="M5.19059 8.48823C4.36647 9.3017 3.17274 9.23999 2.41855 8.41531C1.70431 7.64112 1.73428 6.37324 2.47349 5.66076C3.27264 4.89218 4.36647 4.86413 5.16063 5.61027C5.95478 6.35641 6.0297 7.66355 5.19559 8.48823H5.19059Z" fill="white"/>
</svg>
