<svg width="50" height="50" viewBox="0 0 50 50" fill="none" xmlns="http://www.w3.org/2000/svg">
<g clip-path="url(#clip0_107_323)">
<path d="M39.8018 36.8633C45.4249 36.8633 49.9997 41.4374 50 47.0605V48.4043C49.9998 48.9435 49.5627 49.3809 49.0234 49.3809H0.976562C0.437338 49.3809 0.000211524 48.9435 0 48.4043V47.0605C0.000264015 41.4374 4.57516 36.8633 10.1982 36.8633C13.0388 36.8633 15.6828 38.011 17.6035 40.0469C19.4632 38.0868 22.0913 36.8633 25 36.8633C27.9087 36.8633 30.5368 38.0869 32.3965 40.0469C34.3169 38.0108 36.9602 36.8633 39.8018 36.8633ZM10.1982 38.8154C5.65202 38.8154 1.95339 42.5144 1.95312 47.0605V47.4277H14.8018V47.0605C14.8019 45.0573 15.3829 43.1871 16.3848 41.6094C14.818 39.827 12.5944 38.8154 10.1982 38.8154ZM25 38.8154C20.4539 38.8154 16.7551 42.5144 16.7549 47.0605V47.4277H33.2451V47.0605C33.2449 42.5144 29.5461 38.8154 25 38.8154ZM39.8018 38.8154C37.4046 38.8155 35.1819 39.8269 33.6152 41.6094C34.6171 43.1871 35.1981 45.0572 35.1982 47.0605V47.4277H48.0469V47.0605C48.0466 42.5144 44.3479 38.8154 39.8018 38.8154ZM10.1982 22.5225C13.5282 22.5225 16.237 25.2399 16.2373 28.5801C16.2373 31.9205 13.5284 34.6386 10.1982 34.6387C6.86816 34.6387 4.15918 31.9205 4.15918 28.5801C4.15944 25.2399 6.86823 22.5225 10.1982 22.5225ZM25 22.5225C28.3302 22.5225 31.0391 25.2406 31.0391 28.5811C31.0388 31.9213 28.33 34.6387 25 34.6387C21.67 34.6387 18.9612 31.9213 18.9609 28.5811C18.9609 25.2406 21.6698 22.5225 25 22.5225ZM39.8018 22.5225C43.1318 22.5225 45.8408 25.2406 45.8408 28.5811C45.8406 31.9213 43.1318 34.6387 39.8018 34.6387C36.4718 34.6386 33.7629 31.9213 33.7627 28.5811C33.7627 25.2407 36.4717 22.5225 39.8018 22.5225ZM10.1982 24.4756C7.94512 24.4756 6.1123 26.3176 6.1123 28.5811C6.11252 30.8443 7.94525 32.6855 10.1982 32.6855C12.4513 32.6855 14.284 30.8443 14.2842 28.5811C14.2842 26.3176 12.4514 24.4756 10.1982 24.4756ZM25 24.4756C22.7468 24.4756 20.9141 26.3176 20.9141 28.5811C20.9143 30.8443 22.7469 32.6855 25 32.6855C27.2531 32.6855 29.0857 30.8442 29.0859 28.5811C29.0859 26.3176 27.2532 24.4756 25 24.4756ZM39.8018 24.4756C37.5486 24.4756 35.7158 26.3176 35.7158 28.5811C35.716 30.8443 37.5487 32.6855 39.8018 32.6855C42.0547 32.6855 43.8875 30.8443 43.8877 28.5811C43.8877 26.3176 42.0549 24.4756 39.8018 24.4756ZM29.6377 0.619141C31.4949 0.619181 33.2067 1.2736 34.458 2.46094C35.8238 3.75711 36.5459 5.56977 36.5459 7.70215C36.5459 9.55865 36.1278 11.0965 35.1895 12.6885C33.2268 16.0184 25.7777 20.0689 25.457 20.2422C25.3124 20.3204 25.1527 20.3603 24.9932 20.3604C24.8326 20.3604 24.6718 20.3203 24.5264 20.2412C24.2088 20.0686 16.7609 15.9948 14.8125 12.6895C13.8725 11.0948 13.4541 9.55615 13.4541 7.70215C13.4541 5.56977 14.175 3.75786 15.5391 2.46191C16.7896 1.27402 18.5012 0.619141 20.3584 0.619141C22.7264 0.619218 24.166 1.63334 24.9941 2.58203C25.8234 1.63331 27.265 0.619141 29.6377 0.619141ZM20.3584 2.57227C17.894 2.57227 15.4074 4.15871 15.4072 7.70215C15.4072 9.20763 15.7322 10.4028 16.4951 11.6973C17.7908 13.8954 22.6933 16.9679 24.9941 18.2676C27.2961 16.9739 32.2021 13.9106 33.5068 11.6973C34.2683 10.4054 34.5928 9.21041 34.5928 7.70215C34.5926 4.15889 32.1043 2.57332 29.6377 2.57324C27.1167 2.57324 26.1753 4.10078 25.8877 4.75781C25.7516 5.06863 25.4659 5.28321 25.1367 5.33203L24.9932 5.34277C24.6052 5.34268 24.2541 5.11306 24.0986 4.75781C23.7419 3.94194 22.7816 2.5724 20.3584 2.57227Z" fill="white"/>
</g>
<defs>
<clipPath id="clip0_107_323">
<rect width="50" height="50" fill="white"/>
</clipPath>
</defs>
</svg>
