<svg width="42" height="42" viewBox="0 0 42 42" fill="none" xmlns="http://www.w3.org/2000/svg">
<g clip-path="url(#clip0_974_9007)">
<path d="M21.0003 0.00408382C9.65194 -0.219676 0.261431 8.77959 0.00231934 20.1271C0.0319297 25.9034 2.58966 31.3772 7.00161 35.1056V41.125C7.00161 41.6082 7.39335 42 7.87655 42C8.04051 42 8.2012 41.9539 8.34023 41.867L13.217 38.8206C15.7017 39.7709 18.3401 40.2555 21.0003 40.2502C32.3486 40.4739 41.7391 31.4747 41.9982 20.1272C41.7391 8.77959 32.3486 -0.219676 21.0003 0.00408382Z" fill="#2196F3"/>
<path d="M34.8237 14.3527C34.5633 14.0037 34.086 13.8993 33.7038 14.1077L24.6047 19.0684L18.944 14.2144C18.5969 13.9168 18.0792 13.9366 17.7559 14.2599L7.25696 24.7589C6.91632 25.1016 6.91796 25.6556 7.26074 25.9962C7.53478 26.2686 7.95498 26.329 8.29464 26.1447L17.3937 21.184L23.0596 26.0398C23.4068 26.3373 23.9245 26.3176 24.2477 25.9942L34.7467 15.4953C35.0527 15.1864 35.0855 14.6998 34.8237 14.3527Z" fill="#FAFAFA"/>
</g>
<defs>
<clipPath id="clip0_974_9007">
<rect width="42" height="42" fill="white"/>
</clipPath>
</defs>
</svg>
