<svg width="42" height="42" viewBox="0 0 42 42" fill="none" xmlns="http://www.w3.org/2000/svg">
<path d="M28.9126 18.0469C28.9126 17.1408 28.1781 16.4062 27.272 16.4062H10.3736C9.46747 16.4062 8.73296 17.1408 8.73296 18.0469C8.73296 18.953 9.46747 19.6875 10.3736 19.6875H27.272C28.1781 19.6875 28.9126 18.953 28.9126 18.0469Z" fill="white"/>
<path d="M10.3736 22.9688C9.46747 22.9688 8.73296 23.7033 8.73296 24.6094C8.73296 25.5155 9.46747 26.25 10.3736 26.25H20.6366C21.5427 26.25 22.2772 25.5155 22.2772 24.6094C22.2772 23.7033 21.5427 22.9688 20.6366 22.9688H10.3736Z" fill="white"/>
<path d="M14.2291 38.7188H8.74207C6.93278 38.7188 5.46082 37.2468 5.46082 35.4375V6.5625C5.46082 4.75322 6.93278 3.28125 8.74207 3.28125H28.9126C30.7219 3.28125 32.1939 4.75322 32.1939 6.5625V16.6523C32.1939 17.5585 32.9284 18.293 33.8345 18.293C34.7406 18.293 35.4751 17.5585 35.4751 16.6523V6.5625C35.4751 2.94394 32.5312 0 28.9126 0H8.74207C5.1235 0 2.17957 2.94394 2.17957 6.5625V35.4375C2.17957 39.0561 5.1235 42 8.74207 42H14.2291C15.1352 42 15.8697 41.2655 15.8697 40.3594C15.8697 39.4533 15.1352 38.7188 14.2291 38.7188Z" fill="white"/>
<path d="M38.3811 23.754C36.4621 21.8349 33.3396 21.8348 31.4218 23.7526L22.4145 32.74C22.2232 32.9309 22.0822 33.166 22.0036 33.4245L20.042 39.8824C19.868 40.455 20.0196 41.0767 20.4374 41.505C20.7505 41.8258 21.1757 42 21.6119 42C21.7578 42 21.9051 41.9805 22.0497 41.9404L28.6717 40.1061C28.9442 40.0306 29.1926 39.886 29.3928 39.6861L38.3812 30.7146C40.3002 28.7956 40.3002 25.6732 38.3811 23.754ZM27.3801 37.0591L24.0486 37.9819L25.0235 34.7721L31.1012 28.708L33.4218 31.0286L27.3801 37.0591ZM36.0622 28.3935L35.7443 28.7107L33.424 26.3904L33.7408 26.0743C34.3805 25.4346 35.4213 25.4346 36.061 26.0743C36.7007 26.714 36.7007 27.7548 36.0622 28.3935Z" fill="white"/>
<path d="M27.272 9.84375H10.3736C9.46747 9.84375 8.73296 10.5783 8.73296 11.4844C8.73296 12.3905 9.46747 13.125 10.3736 13.125H27.272C28.1781 13.125 28.9126 12.3905 28.9126 11.4844C28.9126 10.5783 28.1781 9.84375 27.272 9.84375Z" fill="white"/>
</svg>
