<svg width="26" height="26" viewBox="0 0 26 26" fill="none" xmlns="http://www.w3.org/2000/svg">
<path d="M13.1032 11.364L13 11.3014V7.8902C12.9995 7.56118 13.08 7.23787 13.2334 6.95312C13.3868 6.66837 13.6075 6.43233 13.8732 6.26898C14.1459 6.09545 14.4566 6.00266 14.7735 6.00006C15.0904 5.99745 15.4023 6.08513 15.6775 6.25416L24.1032 11.364C24.3749 11.5258 24.6014 11.7629 24.7591 12.0506C24.9168 12.3383 25 12.6661 25 13.0001C25 13.334 24.9168 13.6618 24.7591 13.9495C24.6014 14.2372 24.3749 14.4743 24.1032 14.6361L15.6775 19.746C15.4023 19.9149 15.0904 20.0025 14.7735 19.9999C14.4566 19.9973 14.146 19.9046 13.8732 19.7311C13.6075 19.5678 13.3868 19.3318 13.2334 19.047C13.08 18.7623 12.9995 18.439 13 18.1099V14.6987L13.1032 14.6361C13.3749 14.4743 13.6014 14.2372 13.7591 13.9495C13.9168 13.6618 14 13.334 14 13.0001C14 12.6661 13.9168 12.3383 13.7591 12.0506C13.6014 11.7629 13.3749 11.5258 13.1032 11.364Z" fill="black"/>
<path fill-rule="evenodd" clip-rule="evenodd" d="M13 11.3014L13.1032 11.364C13.3749 11.5258 13.6014 11.7629 13.7591 12.0506C13.9168 12.3383 14 12.6661 14 13.0001C14 13.334 13.9168 13.6618 13.7591 13.9495C13.6014 14.2372 13.3749 14.4743 13.1032 14.6361L13 14.6987V11.3014Z" fill="black"/>
<path fill-rule="evenodd" clip-rule="evenodd" d="M4.67747 6.25416L13 11.3014V14.6987L4.67747 19.746C4.40228 19.9149 4.09039 20.0025 3.77348 19.9999C3.45658 19.9973 3.14597 19.9046 2.87321 19.7311C2.60751 19.5678 2.38676 19.3318 2.23339 19.047C2.08002 18.7623 1.9995 18.439 2 18.1099V7.8902C1.9995 7.56118 2.08002 7.23787 2.23339 6.95312C2.38676 6.66837 2.60751 6.43233 2.87321 6.26898C3.14594 6.09545 3.45657 6.00266 3.77348 6.00006C4.0904 5.99745 4.40231 6.08513 4.67747 6.25416Z" fill="black"/>
</svg>
