<svg width="26" height="26" viewBox="0 0 26 26" fill="none" xmlns="http://www.w3.org/2000/svg">
<path d="M20.2171 10.8474L8.30047 4.12426C7.9113 3.90186 7.47016 3.7865 7.02194 3.78993C6.57372 3.79336 6.1344 3.91544 5.74868 4.14376C5.37288 4.35869 5.06067 4.66925 4.84376 5.0439C4.62685 5.41855 4.51296 5.84393 4.51368 6.27684V19.7232C4.51296 20.1561 4.62685 20.5815 4.84376 20.9561C5.06067 21.3308 5.37288 21.6413 5.74868 21.8563C6.13444 22.0845 6.57374 22.2065 7.02194 22.2099C7.47014 22.2133 7.91126 22.0981 8.30047 21.8758L20.2171 15.1526C20.6015 14.9397 20.9218 14.6278 21.1448 14.2492C21.3679 13.8707 21.4855 13.4394 21.4855 13C21.4855 12.5607 21.3679 12.1293 21.1448 11.7508C20.9218 11.3722 20.6015 11.0603 20.2171 10.8474Z" fill="black"/>
</svg>
