<svg width="50" height="50" viewBox="0 0 50 50" fill="none" xmlns="http://www.w3.org/2000/svg">
<g clip-path="url(#clip0_49_329)">
<path d="M49.9871 24.1844C49.5677 11.0498 38.9505 0.432965 25.8162 0.0135139C18.6694 -0.213236 11.9831 2.50706 7.04162 7.60892C2.29112 12.5135 -0.20488 18.9794 0.0134449 25.8163C0.432545 38.9505 11.0498 49.5677 24.184 49.9868C24.4575 49.9956 24.7284 49.9998 25.0001 49.9998C31.8286 49.9998 38.2063 47.2978 42.9586 42.3914C47.7091 37.4872 50.2054 31.021 49.9871 24.1844ZM39.1769 38.7287C35.4253 42.602 30.3905 44.7351 25.0001 44.7351C24.7846 44.7351 24.5691 44.7316 24.3518 44.7249C13.9859 44.3939 5.60671 36.0147 5.27536 25.6485C5.10302 20.2493 7.07321 15.1436 10.8234 11.272C14.5749 7.39866 19.6097 5.26561 25.0001 5.26561C25.2156 5.26561 25.4311 5.26912 25.6484 5.27578C36.0143 5.60678 44.3935 13.986 44.7248 24.3522C44.8972 29.7514 42.9267 34.8571 39.1769 38.7287Z" fill="white"/>
<path d="M33.1998 23.5476L22.1137 15.5987C20.9312 14.7507 19.2849 15.5959 19.2849 17.0511V32.9492C19.2849 34.4045 20.9312 35.2497 22.1137 34.4017L33.1995 26.4525C34.1942 25.7396 34.1942 24.2608 33.1998 23.5476Z" fill="white"/>
</g>
<defs>
<clipPath id="clip0_49_329">
<rect width="50" height="50" fill="white"/>
</clipPath>
</defs>
</svg>
