<svg width="50" height="50" viewBox="0 0 50 50" fill="none" xmlns="http://www.w3.org/2000/svg">
<g clip-path="url(#clip0_29_34)">
<path d="M45.6055 20.6055H29.3945V4.39453C29.3945 1.96748 27.4271 0 25 0C22.5729 0 20.6055 1.96748 20.6055 4.39453V20.6055H4.39453C1.96748 20.6055 0 22.5729 0 25C0 27.4271 1.96748 29.3945 4.39453 29.3945H20.6055V45.6055C20.6055 48.0325 22.5729 50 25 50C27.4271 50 29.3945 48.0325 29.3945 45.6055V29.3945H45.6055C48.0325 29.3945 50 27.4271 50 25C50 22.5729 48.0325 20.6055 45.6055 20.6055Z" fill="white"/>
</g>
<defs>
<clipPath id="clip0_29_34">
<rect width="50" height="50" fill="white"/>
</clipPath>
</defs>
</svg>
