<svg width="50" height="50" viewBox="0 0 50 50" fill="none" xmlns="http://www.w3.org/2000/svg">
<path d="M47.1875 41.125L41.1875 35.125C39.5625 37.5 37.5 39.5469 35.125 41.1875L41.125 47.1875C41.9531 48.0156 43.0625 48.4375 44.1563 48.4375C45.25 48.4375 46.3438 48.0156 47.1875 47.1875C48 46.375 48.4375 45.2969 48.4375 44.1563C48.4375 43.0156 47.9844 41.9375 47.1875 41.125Z" fill="white"/>
<path d="M21.875 9.375C14.9844 9.375 9.375 14.9844 9.375 21.875C9.375 28.7656 14.9844 34.375 21.875 34.375C28.7656 34.375 34.375 28.7656 34.375 21.875C34.375 14.9844 28.7656 9.375 21.875 9.375ZM27.6563 20.0625L21.7031 25.9219C21.4063 26.2188 21 26.375 20.6094 26.375C20.2187 26.375 19.8125 26.2188 19.5156 25.9219L16.0938 22.5625C15.4844 21.9531 15.4688 20.9688 16.0781 20.3594C16.6875 19.75 17.6719 19.7344 18.2812 20.3438L20.6094 22.625L25.4687 17.8438C26.0781 17.2344 27.0781 17.25 27.6719 17.8594C28.2812 18.4688 28.2656 19.4688 27.6563 20.0625Z" fill="white"/>
<path d="M42.1875 21.875C42.1875 10.6719 33.0781 1.5625 21.875 1.5625C10.6719 1.5625 1.5625 10.6719 1.5625 21.875C1.5625 33.0781 10.6719 42.1875 21.875 42.1875C33.0781 42.1875 42.1875 33.0781 42.1875 21.875ZM21.875 37.5C13.2656 37.5 6.25 30.4844 6.25 21.875C6.25 13.2656 13.2656 6.25 21.875 6.25C30.4844 6.25 37.5 13.2656 37.5 21.875C37.5 30.4844 30.4844 37.5 21.875 37.5Z" fill="white"/>
</svg>
