<svg width="50" height="50" viewBox="0 0 50 50" fill="none" xmlns="http://www.w3.org/2000/svg">
<path d="M47.1875 41.125L41.1875 35.125C39.5625 37.5 37.5 39.5469 35.125 41.1875L41.125 47.1875C41.9531 48.0156 43.0625 48.4375 44.1562 48.4375C45.25 48.4375 46.3438 48.0156 47.1875 47.1875C48 46.375 48.4375 45.2969 48.4375 44.1562C48.4375 43.0156 47.9844 41.9375 47.1875 41.125Z" fill="white"/>
<path d="M42.1875 21.875C42.1875 10.6719 33.0781 1.5625 21.875 1.5625C10.6719 1.5625 1.5625 10.6719 1.5625 21.875C1.5625 33.0781 10.6719 42.1875 21.875 42.1875C33.0781 42.1875 42.1875 33.0781 42.1875 21.875ZM21.875 37.5C13.2656 37.5 6.25 30.4844 6.25 21.875C6.25 13.2656 13.2656 6.25 21.875 6.25C30.4844 6.25 37.5 13.2656 37.5 21.875C37.5 30.4844 30.4844 37.5 21.875 37.5Z" fill="white"/>
<path d="M30.2422 20.2422H23.7578V13.7578C23.7578 12.787 22.9708 12 22 12C21.0292 12 20.2422 12.787 20.2422 13.7578V20.2422H13.7578C12.787 20.2422 12 21.0292 12 22C12 22.9708 12.787 23.7578 13.7578 23.7578H20.2422V30.2422C20.2422 31.213 21.0292 32 22 32C22.9708 32 23.7578 31.213 23.7578 30.2422V23.7578H30.2422C31.213 23.7578 32 22.9708 32 22C32 21.0292 31.213 20.2422 30.2422 20.2422Z" fill="white"/>
</svg>
