<svg width="24" height="24" viewBox="0 0 24 24" fill="none" xmlns="http://www.w3.org/2000/svg">
<path d="M21.825 7.67514L16.4083 2.18641C16.2316 2.00759 15.9607 1.95146 15.725 2.04407C15.4883 2.13757 15.3333 2.3612 15.3333 2.61V5.25282H15.125C10.645 5.25282 7 8.80954 7 13.181V14.4007C7 14.6836 7.20416 14.9194 7.4866 14.9838C7.53253 14.9951 7.57831 15 7.62409 15C7.85999 15 8.08582 14.865 8.19492 14.6528C9.36664 12.3654 11.7225 10.9448 14.3433 10.9448H15.3333V13.5875C15.3333 13.8364 15.4883 14.06 15.725 14.1527C15.9592 14.2462 16.2316 14.1893 16.4083 14.0103L21.825 8.52159C22.0583 8.285 22.0583 7.91262 21.825 7.67514Z" fill="black"/>
<path d="M19.5 22H4.5C3.12167 22 2 20.856 2 19.45V7.55002C2 6.14411 3.12167 5 4.5 5H7C7.46082 5 7.83328 5.37992 7.83328 5.84995C7.83328 6.31999 7.46082 6.69991 7 6.69991H4.5C4.03995 6.69991 3.66656 7.08076 3.66656 7.55002V19.45C3.66656 19.9192 4.03995 20.3001 4.5 20.3001H19.5C19.9599 20.3001 20.3333 19.9192 20.3333 19.45V12.65C20.3333 12.18 20.7057 11.7999 21.1666 11.7999C21.6275 11.7999 22 12.18 22 12.65V19.45C22 20.856 20.8783 22 19.5 22Z" fill="black"/>
</svg>
