<svg width="24" height="24" viewBox="0 0 24 24" fill="none" xmlns="http://www.w3.org/2000/svg">
<g clip-path="url(#clip0_797_8202)">
<path d="M16.92 9.71201L4.525 1.44901C4.11086 1.17302 3.6296 1.0146 3.13251 0.990621C2.63541 0.966642 2.14113 1.07801 1.70235 1.31284C1.26357 1.54768 0.896747 1.89719 0.640976 2.3241C0.385205 2.75101 0.250078 3.23934 0.250002 3.73701V20.263C0.249401 20.761 0.384108 21.2497 0.639729 21.677C0.895349 22.1043 1.26228 22.4542 1.7013 22.6891C2.14031 22.9241 2.63493 23.0354 3.13228 23.011C3.62962 22.9867 4.11101 22.8277 4.525 22.551L16.925 14.288C17.3018 14.037 17.6109 13.6968 17.8246 13.2977C18.0383 12.8985 18.1502 12.4528 18.1502 12C18.1502 11.5472 18.0383 11.1015 17.8246 10.7023C17.6109 10.3032 17.3018 9.96299 16.925 9.71201H16.92Z" fill="black"/>
<path d="M21.5 1.25001C20.9035 1.2508 20.3317 1.48811 19.9099 1.90989C19.4881 2.33168 19.2508 2.90351 19.25 3.50001V20.5C19.25 21.0967 19.4871 21.669 19.909 22.091C20.331 22.513 20.9033 22.75 21.5 22.75C22.0967 22.75 22.669 22.513 23.091 22.091C23.5129 21.669 23.75 21.0967 23.75 20.5V3.50001C23.7492 2.90351 23.5119 2.33168 23.0901 1.90989C22.6683 1.48811 22.0965 1.2508 21.5 1.25001Z" fill="black"/>
</g>
<defs>
<clipPath id="clip0_797_8202">
<rect width="24" height="24" fill="white"/>
</clipPath>
</defs>
</svg>
