<svg width="52" height="50" viewBox="0 0 52 50" fill="none" xmlns="http://www.w3.org/2000/svg">
<g clip-path="url(#clip0_117_646)">
<path d="M35.7225 18.2456C35.8056 16.5343 35.8056 12.7862 34.5406 10.9447C36.101 9.50305 38.8801 5.97814 36.6273 0.620989C36.3588 -0.0878564 35.2842 -0.145409 34.9561 0.546611C34.9469 0.555875 34.1344 2.05325 31.7061 1.56967C30.7552 1.36503 8.38373 -3.34107 2.40998 10.6656C1.96681 11.4748 -2.66815 20.5243 2.77931 29.7318C2.84395 29.8342 9.11311 40.5764 4.90288 48.5842C4.57899 49.1737 5.04579 49.9676 5.72466 49.942C5.72463 49.9421 25.0122 49.9421 25.0122 49.9421C25.3077 49.9421 25.5847 49.8025 25.7601 49.5607C25.9355 49.3189 25.9817 49.0027 25.8894 48.7144C25.6197 47.8388 24.8054 44.7001 26.4803 44.0826C26.4803 44.0827 33.9221 42.6876 33.9221 42.6876C35.2055 42.4551 36.2211 41.4692 36.5258 40.195L36.9782 38.2605C37.1905 37.3397 36.6827 36.4004 35.8056 36.0842L31.7061 34.5775C31.5215 34.4379 31.503 34.2333 31.503 34.1496C31.4938 34.0659 31.5215 33.8613 31.7061 33.7125L36.0087 31.9454C37.17 31.4989 37.7682 30.0749 37.3013 28.9227C37.3013 28.9227 36.9135 26.672 36.9135 26.672L38.6308 25.2304C39.1387 24.877 39.4711 24.3189 39.545 23.6958C39.6188 23.082 39.4249 22.4588 39.0187 21.9937L35.7225 18.2456Z" fill="white"/>
<path d="M48.8594 26.1141C48.0675 25.2021 46.6761 26.404 47.4637 27.3312C50.8833 31.1884 50.8481 37.418 47.3923 41.243C46.8591 41.8104 47.3208 42.8152 48.0849 42.788C48.34 42.788 48.5952 42.6817 48.7773 42.4728C52.8407 37.9776 52.8801 30.6471 48.8594 26.1141Z" fill="white"/>
<path d="M45.9452 28.6455C45.1439 27.7366 43.7648 28.9526 44.5567 29.8717C46.7276 32.2791 46.7027 36.2897 44.5133 38.6745C43.9743 39.2413 44.4351 40.2508 45.2023 40.224C45.4556 40.224 45.709 40.1195 45.8911 39.9133C48.6967 36.8546 48.7272 31.7318 45.9452 28.6455Z" fill="white"/>
<path d="M41.7444 31.0723C41.3594 31.4084 41.3179 31.996 41.6524 32.3838C42.5695 33.4166 42.5599 35.0977 41.629 36.1232C40.8334 37.034 42.2071 38.2646 43.0122 37.3547C44.553 35.6597 44.5669 32.8734 43.0463 31.165C42.7128 30.7771 42.1294 30.7344 41.7444 31.0723Z" fill="white"/>
</g>
<defs>
<clipPath id="clip0_117_646">
<rect width="52" height="50" fill="white"/>
</clipPath>
</defs>
</svg>
