<svg width="24" height="24" viewBox="0 0 24 24" fill="none" xmlns="http://www.w3.org/2000/svg">
<g clip-path="url(#clip0_974_8480)">
<path d="M21.9999 0.00012207H13.6873C13.1374 0.00012207 12.3688 0.318694 11.9803 0.706933L0.583633 12.1035C-0.194544 12.8808 -0.194544 14.1552 0.583633 14.9316L9.06935 23.417C9.84577 24.1943 11.1189 24.1943 11.8965 23.4161L23.2932 12.0213C23.6814 11.6331 24 10.8633 24 10.3146V2.00021C24 0.900409 23.0996 0.00012207 21.9999 0.00012207ZM17.9997 8.00016C16.8951 8.00016 15.9996 7.10374 15.9996 6.00008C15.9996 4.8946 16.8951 4 17.9997 4C19.1043 4 20.0001 4.8946 20.0001 6.00008C20.0001 7.10374 19.1043 8.00016 17.9997 8.00016Z" fill="black"/>
</g>
<defs>
<clipPath id="clip0_974_8480">
<rect width="24" height="24" fill="white"/>
</clipPath>
</defs>
</svg>
