<svg width="18" height="18" viewBox="0 0 18 18" fill="none" xmlns="http://www.w3.org/2000/svg">
<g clip-path="url(#clip0_777_7314)">
<path d="M16.6025 9.6348C16.0439 9.5498 15.5478 9.9327 15.4677 10.4786C15.2665 11.8497 14.6337 13.1007 13.6376 14.0968C11.1024 16.632 6.98042 16.63 4.44622 14.0968C1.91252 11.5626 1.91252 7.4391 4.44622 4.9054C5.39932 3.9528 6.60252 3.3317 7.94912 3.1056C8.52822 2.9957 9.15082 2.9767 9.79682 3.0499C10.6838 3.152 11.5094 3.4463 12.2628 3.8784L10.9609 4.1007C10.417 4.194 10.0507 4.7106 10.1445 5.255C10.2275 5.7423 10.6504 6.0865 11.1289 6.0865C11.1846 6.0865 11.2412 6.0821 11.2988 6.0723L14.789 5.4756C15.0497 5.4307 15.2831 5.2842 15.4365 5.0674C15.5898 4.8511 15.6504 4.5825 15.6054 4.3208L15.0077 0.831096C14.9159 0.287196 14.4061 -0.0771037 13.8534 0.0141963C13.3095 0.107496 12.9432 0.624596 13.037 1.169L13.1943 2.0875C12.2264 1.5445 11.1587 1.1932 10.0243 1.0626C9.17472 0.965896 8.35052 0.992796 7.59612 1.1373C5.85932 1.4283 4.28122 2.2423 3.03212 3.4913C-0.281378 6.8048 -0.281378 12.1964 3.03212 15.5108C4.68882 17.168 6.86562 17.9962 9.04192 17.9962C11.2187 17.9962 13.3944 17.1681 15.0517 15.5108C16.3535 14.209 17.1816 12.5694 17.4462 10.7696C17.5264 10.2227 17.1484 9.7148 16.6025 9.6348Z" fill="black"/>
</g>
<defs>
<clipPath id="clip0_777_7314">
<rect width="18" height="18" fill="white"/>
</clipPath>
</defs>
</svg>
