<svg width="36" height="36" viewBox="0 0 36 36" fill="none" xmlns="http://www.w3.org/2000/svg">
<path fill-rule="evenodd" clip-rule="evenodd" d="M16.8894 5.53683C17.2183 5.67316 17.4993 5.90394 17.697 6.19999C17.8947 6.49603 18 6.84404 18 7.20003V28.8C18 29.156 17.8944 29.504 17.6966 29.7999C17.4988 30.0958 17.2177 30.3264 16.8888 30.4627C16.56 30.5989 16.1981 30.6346 15.849 30.5651C15.4999 30.4956 15.1792 30.3242 14.9274 30.0726L8.25485 23.4H3.60005C3.12265 23.4 2.66482 23.2105 2.32725 22.8728C1.9897 22.5353 1.80005 22.0774 1.80005 21.6V14.4C1.80005 13.9226 1.9897 13.4648 2.32725 13.1272C2.66482 12.7897 3.12265 12.6 3.60005 12.6H8.25485L14.9274 5.92743C15.1792 5.67554 15.4999 5.504 15.8492 5.43446C16.1984 5.36493 16.5605 5.40055 16.8894 5.53683ZM26.3826 5.27223C26.7201 4.93478 27.1779 4.74521 27.6552 4.74521C28.1326 4.74521 28.5903 4.93478 28.9278 5.27223C30.6015 6.942 31.9288 8.92596 32.8337 11.1102C33.7383 13.2944 34.2027 15.6358 34.2 18C34.2027 20.3643 33.7383 22.7057 32.8337 24.8899C31.9288 27.0742 30.6015 29.0581 28.9278 30.7278C28.5884 31.0558 28.1337 31.2372 27.6617 31.2331C27.1898 31.2289 26.7383 31.0396 26.4046 30.7058C26.0709 30.3721 25.8815 29.9207 25.8774 29.4487C25.8732 28.9768 26.0547 28.5221 26.3826 28.1826C27.722 26.8472 28.7842 25.2599 29.508 23.5125C30.2319 21.7649 30.6029 19.8914 30.6 18C30.6 14.022 28.9908 10.4256 26.3826 7.81743C26.0451 7.47988 25.8556 7.02212 25.8556 6.54483C25.8556 6.06752 26.0451 5.60977 26.3826 5.27223ZM21.2904 10.3626C21.4577 10.1953 21.6562 10.0625 21.8747 9.97192C22.0932 9.88133 22.3274 9.83471 22.5639 9.83471C22.8005 9.83471 23.0346 9.88133 23.2532 9.97192C23.4717 10.0625 23.6702 10.1953 23.8374 10.3626C24.8417 11.3646 25.638 12.5551 26.1807 13.8658C26.7234 15.1765 27.0018 16.5814 27 18C27.0018 19.4186 26.7234 20.8235 26.1805 22.1342C25.6378 23.4448 24.8415 24.6353 23.8374 25.6374C23.4998 25.9753 23.0417 26.165 22.5639 26.165C22.0862 26.165 21.6281 25.9753 21.2904 25.6374C20.9528 25.2997 20.7629 24.8416 20.7629 24.3639C20.7629 23.8864 20.9528 23.4283 21.2904 23.0904C21.9604 22.423 22.4916 21.6295 22.8537 20.756C23.2157 19.8823 23.4015 18.9457 23.4 18C23.4015 17.0543 23.2159 16.1177 22.8537 15.2441C22.4918 14.3704 21.9604 13.5771 21.2904 12.9096C21.123 12.7424 20.9904 12.5439 20.8997 12.3254C20.8091 12.1069 20.7625 11.8727 20.7625 11.6361C20.7625 11.3996 20.8091 11.1653 20.8997 10.9468C20.9904 10.7283 21.123 10.5298 21.2904 10.3626Z" fill="black"/>
</svg>
