<svg width="40" height="40" viewBox="0 0 40 40" fill="none" xmlns="http://www.w3.org/2000/svg">
<path d="M39.2656 15.2109C38.2891 16.1875 36.7031 16.1875 35.7266 15.2109C27.0391 6.52345 12.9531 6.52345 4.26563 15.2109C3.28907 16.1797 1.70313 16.1797 0.726565 15.1953C-0.234372 14.2188 -0.234372 12.6484 0.734378 11.6719C11.3594 1.03126 28.6016 1.01564 39.2422 11.6406C39.25 11.6484 39.2578 11.6563 39.2734 11.6719C40.2344 12.6484 40.2266 14.2266 39.2656 15.2109ZM8.46875 19.4141C7.49219 20.3906 7.49219 21.9766 8.46875 22.9531C9.44532 23.9297 11.0313 23.9297 12.0078 22.9531C16.4141 18.5469 23.5859 18.5469 28 22.9531C28.9766 23.9297 30.5625 23.9297 31.5391 22.9531C32.5156 21.9766 32.5156 20.3906 31.5391 19.4141C25.1719 13.0547 14.8281 13.0547 8.46875 19.4141ZM23.7891 27.1484C25.8828 29.2422 25.8828 32.6406 23.7891 34.7344C21.6953 36.8281 18.2969 36.8281 16.2031 34.7344C14.1094 32.6406 14.1094 29.2422 16.2031 27.1484C18.2734 25.0547 21.6406 25.0313 23.7344 27.1016C23.7578 27.1172 23.7734 27.1328 23.7891 27.1484Z" fill="white"/>
</svg>
